<?xml version="1.0" standalone="no"?>
<!DOCTYPE svg PUBLIC "-//W3C//DTD SVG 1.1//EN" "http://www.w3.org/Graphics/SVG/1.1/DTD/svg11.dtd" >
<svg xmlns="http://www.w3.org/2000/svg" xmlns:xlink="http://www.w3.org/1999/xlink" version="1.1">
<metadata></metadata>
<defs>
<font id="fira_sans_condensedbold" horiz-adv-x="1073" >
<font-face units-per-em="2048" ascent="1638" descent="-410" />
<missing-glyph horiz-adv-x="425" />
<glyph horiz-adv-x="0" />
<glyph unicode="&#xd;" horiz-adv-x="425" />
<glyph unicode=" "  horiz-adv-x="425" />
<glyph unicode="&#x09;" horiz-adv-x="425" />
<glyph unicode="&#xa0;" horiz-adv-x="425" />
<glyph unicode="!" horiz-adv-x="471" d="M55 147q0 74 51.5 127.5t129.5 53.5q75 0 126.5 -53.5t51.5 -127.5q0 -76 -50.5 -129t-127.5 -53q-78 0 -129.5 53.5t-51.5 128.5zM68 1419h333l-43 -899h-247z" />
<glyph unicode="&#x22;" horiz-adv-x="870" d="M90 1419h277l-35 -569h-205zM502 1419h277l-35 -569h-205z" />
<glyph unicode="#" horiz-adv-x="1040" d="M27 297v209h125l53 397h-111v207h137l37 274h252l-37 -274h181l36 274h252l-37 -274h97v-207h-123l-51 -397h106v-209h-135l-39 -297h-252l39 297h-180l-39 -297h-254l39 297h-96zM406 506h180l51 397h-180z" />
<glyph unicode="$" horiz-adv-x="1019" d="M10 172l154 170q72 -63 145.5 -97t157.5 -34q90 0 139 46t49 128q0 74 -46 120t-173 91q-205 74 -290 170t-85 246q0 152 97.5 255t255.5 130v303h223v-305q178 -29 309 -164l-141 -166q-63 55 -127 83t-135 28q-76 0 -119 -37t-43 -103q0 -43 20.5 -73.5t69.5 -57 t145 -63.5q188 -72 275.5 -167t87.5 -267q0 -156 -90 -265.5t-252 -148.5v-324h-223v310q-244 23 -404 192z" />
<glyph unicode="%" horiz-adv-x="1613" d="M59 1044q0 172 94.5 270.5t237.5 98.5q146 0 240 -98t94 -271q0 -172 -94 -269t-240 -97q-143 0 -237.5 97t-94.5 269zM279 1044q0 -88 25.5 -135t86.5 -47t87 47t26 135t-25.5 135.5t-87.5 47.5q-61 0 -86.5 -47t-25.5 -136zM287 33l856 1440l190 -113l-858 -1440z M889 332q0 115 44 198.5t119.5 126.5t170.5 43q145 0 239 -98t94 -270t-93 -269.5t-240 -97.5q-143 0 -238.5 97.5t-95.5 269.5zM1110 332q0 -88 25.5 -134t87.5 -46q63 0 87.5 45t24.5 135t-24.5 136t-87.5 46q-64 0 -88.5 -46t-24.5 -136z" />
<glyph unicode="&#x26;" horiz-adv-x="1417" d="M109 362q0 123 60 214.5t193 185.5q-104 104 -143 179t-39 173q0 92 45 170t137.5 124t223.5 46q190 0 298.5 -92t108.5 -240q0 -119 -62.5 -208t-182.5 -177l245 -264q49 125 82 291l254 -70q-68 -223 -170 -383l227 -217l-264 -129l-145 158q-176 -158 -412 -158 q-133 0 -237.5 50.5t-161.5 140.5t-57 206zM438 377q0 -90 50.5 -138.5t136.5 -48.5q111 0 198 84l-286 316q-52 -45 -75.5 -96.5t-23.5 -116.5zM479 1114q0 -61 21.5 -106t79.5 -113q63 59 89.5 106.5t26.5 114.5q0 133 -106 133q-53 0 -82 -33.5t-29 -101.5z" />
<glyph unicode="'" horiz-adv-x="458" d="M90 1419h277l-35 -569h-205z" />
<glyph unicode="(" horiz-adv-x="614" d="M29 717q0 229 48 411.5t121.5 321.5t188.5 307l203 -135q-131 -209 -187.5 -412.5t-56.5 -492.5t56.5 -493t187.5 -412l-203 -136q-115 168 -188.5 307.5t-121.5 321.5t-48 412z" />
<glyph unicode=")" horiz-adv-x="614" d="M25 -188q129 209 186 414.5t57 490.5t-56 490.5t-187 414.5l200 135q119 -180 191.5 -315t121 -316.5t48.5 -408.5t-48.5 -408.5t-121 -316.5t-191.5 -316z" />
<glyph unicode="*" horiz-adv-x="854" d="M20 1098l84 241l232 -120l-41 301h264l-39 -301l230 122l84 -241l-259 -49l193 -211l-219 -150l-121 254l-121 -254l-217 148l189 213z" />
<glyph unicode="+" horiz-adv-x="989" d="M84 557v244h283v315h258v-315h280v-244h-280v-315h-258v315h-283z" />
<glyph unicode="," horiz-adv-x="462" d="M55 150q0 78 50.5 129t125.5 51q76 0 126.5 -51.5t50.5 -128.5q0 -39 -13.5 -82t-50.5 -134l-119 -294h-170l80 356q-80 57 -80 154z" />
<glyph unicode="-" horiz-adv-x="768" d="M84 518v246h600v-246h-600z" />
<glyph unicode="." horiz-adv-x="468" d="M55 147q0 74 51.5 127.5t126.5 53.5q78 0 129.5 -53.5t51.5 -127.5q0 -76 -51.5 -129t-129.5 -53t-128 53.5t-50 128.5z" />
<glyph unicode="/" horiz-adv-x="958" d="M123 -166l442 1837l271 -61l-441 -1837z" />
<glyph unicode="0" horiz-adv-x="1118" d="M78 690q0 358 123 540.5t358 182.5q234 0 357.5 -184.5t123.5 -538.5q0 -358 -122.5 -541.5t-358.5 -183.5t-358.5 183.5t-122.5 541.5zM399 690q0 -195 16.5 -301t50.5 -148t93 -42t94 42t50.5 147.5t15.5 301.5q0 195 -16.5 300.5t-50.5 147.5t-93 42t-93 -43 t-50.5 -148.5t-16.5 -298.5z" />
<glyph unicode="1" horiz-adv-x="866" d="M12 1102l428 280h283v-1382h-309v1075l-262 -178z" />
<glyph unicode="2" horiz-adv-x="948" d="M-4 1176q168 238 438 237q139 0 238.5 -52t150.5 -140t51 -197q0 -111 -40.5 -212t-144 -232t-302.5 -336h514l-33 -244h-827v225q217 240 322.5 372t146.5 221t41 181q0 82 -40 126t-112 44q-63 0 -112 -31.5t-109 -105.5z" />
<glyph unicode="3" horiz-adv-x="968" d="M-14 174l170 158q66 -68 122 -97.5t125 -29.5q84 0 135.5 54t51.5 153q0 106 -52.5 154t-154.5 48h-100l34 217h68q84 0 133 48.5t49 136.5q0 78 -43 121t-118 43q-127 0 -238 -117l-158 164q186 186 434 186q131 0 228.5 -47t147.5 -128t50 -179q0 -252 -266 -328 q141 -16 224 -99t83 -239q0 -117 -56 -214t-165.5 -155.5t-261.5 -58.5q-141 0 -249.5 53.5t-192.5 155.5z" />
<glyph unicode="4" horiz-adv-x="1052" d="M45 301v211l352 907l267 -96l-299 -784h219l34 329h265v-329h135v-238h-135v-301h-301l-2 301h-535z" />
<glyph unicode="5" horiz-adv-x="1005" d="M20 172l175 158q53 -61 109 -94t128 -33q94 0 144.5 63.5t50.5 188.5q0 127 -43 180t-121 53q-39 0 -73 -10t-75 -37h-211v743h783l-35 -227h-451v-301q90 49 189 49q158 0 257 -117.5t99 -330.5q0 -145 -61.5 -257t-175 -173.5t-265.5 -61.5q-256 0 -424 207z" />
<glyph unicode="6" horiz-adv-x="1071" d="M78 633q0 236 67.5 412t193.5 272t298 96q162 0 289 -92l-115 -184q-82 51 -164 51q-102 0 -166.5 -98.5t-79.5 -290.5q106 131 267 131q102 0 183 -53.5t127 -157t46 -246.5q0 -147 -55.5 -263t-158.5 -180.5t-247 -64.5q-246 0 -365.5 174t-119.5 494zM401 598 q2 -154 18.5 -241t50.5 -125.5t93 -38.5q144 0 148 276q0 137 -33 191.5t-100 54.5q-92 0 -177 -117z" />
<glyph unicode="7" horiz-adv-x="872" d="M18 1147v237h826v-215l-457 -1202l-283 94l418 1086h-504z" />
<glyph unicode="8" horiz-adv-x="1081" d="M49 369q0 231 240 344q-102 66 -146.5 146.5t-44.5 180.5q0 113 55.5 197t156 130t229.5 46q201 0 323.5 -95t122.5 -261q0 -197 -211 -314q135 -69 197.5 -159t62.5 -209q0 -117 -58 -210t-172 -146.5t-269 -53.5q-152 0 -261.5 52.5t-167 144.5t-57.5 207zM360 383 q0 -94 48.5 -142t136.5 -48t133 48t45 136q0 84 -40 132t-146 93l-60 25q-117 -84 -117 -244zM399 1036q0 -74 33 -118t111 -78l37 -19q59 49 81.5 100.5t22.5 118.5q0 160 -141 160q-144 0 -144 -164z" />
<glyph unicode="9" horiz-adv-x="1058" d="M45 936q0 147 62.5 254.5t171 165t243.5 57.5q232 0 354.5 -144.5t122.5 -394.5q0 -281 -85 -464t-259 -293.5t-454 -173.5l-64 221q244 66 366 165t161 279q-106 -127 -256 -127q-98 0 -181.5 55.5t-132.5 159t-49 240.5zM360 946q0 -129 40 -187.5t108 -58.5 q98 0 168 119q2 143 -12.5 223t-48 114t-93.5 34q-76 0 -119 -59.5t-43 -184.5z" />
<glyph unicode=":" horiz-adv-x="468" d="M55 147q0 74 51.5 127.5t126.5 53.5q78 0 129.5 -53.5t51.5 -127.5q0 -76 -51.5 -129t-129.5 -53t-128 53.5t-50 128.5zM55 856q0 74 51.5 127.5t126.5 53.5q78 0 129.5 -53.5t51.5 -127.5q0 -76 -51.5 -129t-129.5 -53t-128 53.5t-50 128.5z" />
<glyph unicode=";" horiz-adv-x="468" d="M55 150q0 78 50.5 129t125.5 51q76 0 126.5 -51.5t50.5 -128.5q0 -39 -13.5 -82t-50.5 -134l-119 -294h-170l80 356q-80 57 -80 154zM55 856q0 74 51.5 127.5t126.5 53.5q78 0 129.5 -53.5t51.5 -127.5q0 -76 -51.5 -129t-129.5 -53t-128 53.5t-50 128.5z" />
<glyph unicode="&#x3c;" horiz-adv-x="962" d="M55 547v270l750 352l102 -215l-594 -272l594 -264l-102 -225z" />
<glyph unicode="=" horiz-adv-x="962" d="M84 344v242h795v-242h-795zM84 772v242h795v-242h-795z" />
<glyph unicode="&#x3e;" horiz-adv-x="962" d="M55 418l594 264l-594 272l103 215l749 -352v-270l-749 -354z" />
<glyph unicode="?" horiz-adv-x="907" d="M27 1237q168 217 440 217q133 0 226 -47t140.5 -125t47.5 -168q0 -80 -26 -137t-61.5 -94t-97.5 -84q-76 -59 -111.5 -105.5t-35.5 -120.5v-53h-285v64q0 94 25.5 158.5t61.5 102.5t91 81q59 45 86 78.5t27 87.5q0 55 -33 84.5t-90 29.5q-111 0 -213 -121zM231 147 q0 74 51.5 127.5t127.5 53.5q77 0 128.5 -53.5t51.5 -127.5q0 -76 -51.5 -129t-128.5 -53q-78 0 -128.5 53.5t-50.5 128.5z" />
<glyph unicode="@" horiz-adv-x="1892" d="M88 496q0 276 114.5 494t316.5 341t458 123t443.5 -110.5t285.5 -296t98 -402.5q0 -184 -52 -328.5t-145.5 -226.5t-211.5 -82q-100 0 -165 60.5t-81 144.5q-37 -90 -103.5 -143.5t-164.5 -53.5q-168 0 -253 124t-85 337q0 258 112.5 404.5t319.5 146.5q84 0 170 -23.5 t158 -68.5v-506q0 -131 17 -177t64 -46q143 0 144 434q0 281 -136.5 432.5t-414.5 151.5q-195 0 -332 -90.5t-207.5 -255t-70.5 -383.5q0 -348 156.5 -533.5t455.5 -185.5q92 0 188.5 19.5t173.5 49.5l74 -213q-92 -39 -207.5 -62.5t-230.5 -23.5q-272 0 -473 115 t-308.5 329t-107.5 505zM823 475q0 -150 23.5 -207t79.5 -57q69 0 112 84v522q-31 14 -75 14q-72 0 -106 -77.5t-34 -278.5z" />
<glyph unicode="A" horiz-adv-x="1112" d="M-23 0l383 1419h394l381 -1419h-338l-64 309h-360l-64 -309h-332zM422 545h262l-131 635z" />
<glyph unicode="B" horiz-adv-x="1144" d="M113 0v1419h370q272 0 420 -89t148 -273q0 -123 -70 -200t-178 -105q135 -29 218 -107t83 -231q0 -414 -572 -414h-419zM440 238h95q114 0 173.5 43t59.5 149q0 201 -217 201h-111v-393zM440 850h90q188 0 189 174q0 84 -49 124t-156 40h-74v-338z" />
<glyph unicode="C" d="M61 713q0 238 76 404.5t208 251.5t304 85q123 0 219.5 -39t182.5 -117l-156 -182q-55 47 -109.5 70.5t-115.5 23.5q-266 0 -267 -497q0 -494 269 -494q70 0 124 27.5t122 81.5l147 -181q-76 -80 -181.5 -131t-232.5 -51q-178 0 -310 84t-206 252t-74 412z" />
<glyph unicode="D" horiz-adv-x="1218" d="M113 0v1419h372q197 0 343.5 -55t236.5 -211t90 -436q0 -397 -176 -557t-467 -160h-399zM440 238h92q94 0 156 40.5t95.5 146t33.5 292.5q0 186 -34.5 288.5t-97 139.5t-155.5 37h-90v-944z" />
<glyph unicode="E" horiz-adv-x="970" d="M113 0v1419h802l-34 -233h-441v-350h385v-230h-385v-368h471v-238h-798z" />
<glyph unicode="F" horiz-adv-x="903" d="M113 0v1419h778l-35 -233h-416v-385h365v-234h-365v-567h-327z" />
<glyph unicode="G" horiz-adv-x="1208" d="M61 711q0 242 82 409.5t223.5 250.5t319.5 83q250 0 434 -174l-159 -168q-70 55 -128.5 80t-132.5 25q-143 0 -221 -118t-78 -388q0 -195 27 -304.5t80 -154.5t141 -45q92 0 164 45v332h-158l-30 231h499v-702q-100 -70 -223 -109t-246 -39q-301 0 -447.5 185.5 t-146.5 560.5z" />
<glyph unicode="H" horiz-adv-x="1232" d="M113 0v1419h327v-553h355v553h327v-1419h-327v610h-355v-610h-327z" />
<glyph unicode="I" horiz-adv-x="550" d="M113 0v1419h327v-1419h-327z" />
<glyph unicode="J" horiz-adv-x="593" d="M-27 -111q80 35 120 78t53.5 102.5t13.5 157.5v1192h327v-1204q0 -242 -114.5 -364.5t-313.5 -192.5z" />
<glyph unicode="K" horiz-adv-x="1189" d="M113 0v1419h327v-1419h-327zM451 758l397 661h334l-398 -637l430 -782h-366z" />
<glyph unicode="L" horiz-adv-x="952" d="M113 0v1419h327v-1159h494l-35 -260h-786z" />
<glyph unicode="M" horiz-adv-x="1474" d="M61 0l95 1419h409l178 -966l164 966h412l94 -1419h-313l-19 561q-8 246 -8 363q0 143 4 211l-186 -985h-307l-197 985q8 -156 8 -330q0 -78 -4 -250l-18 -555h-312z" />
<glyph unicode="N" horiz-adv-x="1226" d="M113 0v1419h405l354 -1116q-45 266 -45 531v585h287v-1419h-409l-349 1114q4 -25 4 -41q18 -147 28.5 -267t10.5 -278v-528h-286z" />
<glyph unicode="O" horiz-adv-x="1290" d="M61 711q0 358 153 550.5t431 192.5q281 0 432.5 -189.5t151.5 -553.5q0 -360 -152.5 -553t-431.5 -193t-431.5 190.5t-152.5 555.5zM403 711q0 -274 59.5 -390t182.5 -116q125 0 183.5 115.5t58.5 390.5q0 270 -58.5 386.5t-183.5 116.5t-183.5 -116.5t-58.5 -386.5z" />
<glyph unicode="P" horiz-adv-x="1114" d="M113 0v1419h405q273 0 419 -116.5t146 -344.5q0 -240 -142 -361.5t-392 -121.5h-109v-475h-327zM440 713h82q115 0 170.5 56t55.5 187q0 117 -54.5 173.5t-171.5 56.5h-82v-473z" />
<glyph unicode="Q" horiz-adv-x="1290" d="M61 711q0 356 153 549.5t431 193.5q279 0 431.5 -190.5t152.5 -552.5q0 -246 -84 -390.5t-225 -230.5q127 0 218 -32.5t175 -102.5l-197 -250q-100 127 -212.5 196.5t-278.5 69.5q-264 0 -414 191.5t-150 548.5zM403 711q0 -273 59.5 -388.5t182.5 -115.5 q127 0 184.5 114.5t57.5 389.5q0 272 -58.5 387.5t-183.5 115.5t-183.5 -115.5t-58.5 -387.5z" />
<glyph unicode="R" horiz-adv-x="1150" d="M113 0v1419h415q279 0 416 -107.5t137 -322.5q0 -272 -239 -383l321 -606h-358l-258 545h-107v-545h-327zM440 772h101q106 0 155 52.5t49 164.5q0 102 -53 150.5t-168 48.5h-84v-416z" />
<glyph unicode="S" horiz-adv-x="1062" d="M10 166l160 178q76 -66 152.5 -100.5t162.5 -34.5q94 0 145.5 49t51.5 131q0 78 -47 125t-178 94q-213 80 -303.5 180.5t-90.5 255.5q0 121 61.5 214.5t169 144.5t243.5 51q143 0 252.5 -46t199.5 -136l-149 -172q-132 114 -271 114h-2q-78 0 -123 -38.5t-45 -106.5 q0 -45 20.5 -75.5t72 -59.5t151.5 -66q131 -49 212 -105t124 -140t43 -209q0 -131 -62.5 -232.5t-180 -159t-275.5 -57.5q-297 0 -494 201z" />
<glyph unicode="T" horiz-adv-x="1003" d="M14 1169v250h992l-35 -250h-305v-1169h-328v1169h-324z" />
<glyph unicode="U" horiz-adv-x="1202" d="M92 438v981h328v-968q0 -123 43 -181.5t139 -58.5t138 58.5t42 181.5v968h330v-981q0 -135 -57.5 -242.5t-172 -169t-280.5 -61.5q-250 0 -380 129t-130 344z" />
<glyph unicode="V" horiz-adv-x="1075" d="M-23 1419h336l238 -1161l219 1161h328l-346 -1419h-414z" />
<glyph unicode="W" horiz-adv-x="1581" d="M18 1419h318l121 -1171l166 1171h340l155 -1171l139 1171h306l-205 -1419h-426l-144 1094l-155 -1094h-416z" />
<glyph unicode="X" horiz-adv-x="1085" d="M-12 0l354 754l-328 665h348l177 -461l188 461h340l-336 -653l367 -766h-350l-213 547l-205 -547h-342z" />
<glyph unicode="Y" horiz-adv-x="1110" d="M-18 1419h350l227 -631l232 631h337l-409 -887v-532h-328v530z" />
<glyph unicode="Z" horiz-adv-x="1007" d="M29 0v246l563 919h-510v254h874v-248l-559 -909h572l-33 -262h-907z" />
<glyph unicode="[" horiz-adv-x="604" d="M55 -250v1933h508v-233h-211v-1468h211v-232h-508z" />
<glyph unicode="\" horiz-adv-x="958" d="M123 1608l270 61l443 -1835l-273 -61z" />
<glyph unicode="]" horiz-adv-x="604" d="M39 -16h213v1466h-213v233h508v-1933h-508v234z" />
<glyph unicode="^" horiz-adv-x="1044" d="M29 1079l348 650h289l348 -650h-305l-191 412l-178 -412h-311z" />
<glyph unicode="_" horiz-adv-x="964" d="M18 -98h928v-248h-928v248z" />
<glyph unicode="`" horiz-adv-x="653" d="M67 1468l123 232l408 -268l-86 -156z" />
<glyph unicode="a" horiz-adv-x="1017" d="M45 305q0 178 120 272.5t347 94.5h86v51q0 96 -35 134t-123 38q-100 0 -256 -55l-71 202q90 39 192.5 59.5t190.5 20.5q211 0 311 -94t100 -287v-440q0 -55 14.5 -81.5t49.5 -41.5l-66 -207q-94 8 -153.5 43t-92.5 109q-100 -158 -292 -158q-147 0 -234.5 93.5 t-87.5 246.5zM354 332q0 -70 28 -106t79 -36q43 0 78.5 27t58.5 76v203h-57q-96 0 -141.5 -40t-45.5 -124z" />
<glyph unicode="b" horiz-adv-x="1112" d="M106 0v1520l316 32v-571q45 66 114.5 103.5t151.5 37.5q174 0 267.5 -148.5t93.5 -430.5q0 -172 -47.5 -303t-135.5 -203t-209 -72q-78 0 -143 36t-113 101l-14 -102h-281zM422 297q57 -102 143 -102q76 0 117 78.5t41 269.5q0 203 -37 275.5t-106 72.5q-45 0 -85 -33 t-73 -90v-471z" />
<glyph unicode="c" horiz-adv-x="892" d="M59 535q0 178 60.5 311t172 204.5t261.5 71.5q102 0 184 -32.5t154 -100.5l-131 -180q-47 37 -90 54.5t-92 17.5q-94 0 -141.5 -78t-47.5 -266q0 -180 48 -252t138 -72q47 0 86 15.5t93 52.5l137 -187q-141 -129 -334 -129q-233 0 -365.5 149.5t-132.5 420.5z" />
<glyph unicode="d" horiz-adv-x="1116" d="M63 545q0 172 50.5 303t141.5 202.5t210 71.5q137 0 227 -100v530l316 -32v-1520h-279l-14 121q-104 -156 -277 -156q-182 0 -278.5 152.5t-96.5 427.5zM389 545q0 -195 39 -271.5t111 -76.5q47 0 83.5 27.5t69.5 84.5v494q-33 45 -64.5 66.5t-74.5 21.5 q-164 0 -164 -346z" />
<glyph unicode="e" horiz-adv-x="1038" d="M59 539q0 262 123 422.5t346 160.5q215 0 338 -144t123 -413q0 -65 -6 -114h-606q12 -143 63.5 -198.5t145.5 -55.5q61 0 116.5 22.5t120.5 69.5l129 -174q-168 -150 -391 -150q-246 0 -374 152.5t-128 421.5zM375 641h305v14q0 129 -34 193.5t-114 64.5 q-72 0 -110.5 -60t-46.5 -212z" />
<glyph unicode="f" horiz-adv-x="673" d="M6 868v219h144v105q0 162 99 261t286 99q152 0 276 -65l-84 -203q-74 37 -147 37q-62 0 -88.5 -29.5t-26.5 -97.5v-107h223l-35 -219h-188v-868h-315v868h-144z" />
<glyph unicode="g" horiz-adv-x="1017" d="M2 -104h283q0 -76 41 -109t159 -33q113 0 158 34t45 93q0 115 -145 115h-117q-164 0 -242 58.5t-78 154.5q0 59 33 112.5t88 92.5q-94 55 -136 128.5t-42 182.5q0 184 122 291q120 104 319 104h8h16q132 0 224 32q96 34 212 101l74 -229q-94 -41 -281 -41 q98 -45 144.5 -111.5t46.5 -171.5q0 -104 -51.5 -187t-146.5 -129t-224 -46q-61 0 -111 12q-34 -22 -34 -63q0 -35 23.5 -53.5t86.5 -18.5h133q180 0 287 -87t107 -224q0 -166 -135.5 -261.5t-387.5 -95.5q-270 0 -374.5 88.5t-104.5 260.5zM360 729q0 -94 36 -141t102 -47 q68 0 102.5 46t34.5 146q0 94 -34 137t-103 43q-138 0 -138 -184z" />
<glyph unicode="h" d="M106 0v1520l316 32v-583q57 78 124.5 115.5t153.5 37.5q127 0 200 -85t73 -232v-805h-316v762q0 68 -20.5 95.5t-56.5 27.5q-41 0 -79 -34t-79 -99v-752h-316z" />
<glyph unicode="i" horiz-adv-x="530" d="M80 1477q0 76 51 127t131 51t132.5 -51.5t52.5 -126.5q0 -78 -52.5 -129.5t-132.5 -51.5t-131 51.5t-51 129.5zM106 0v1087h316v-1087h-316z" />
<glyph unicode="j" horiz-adv-x="530" d="M-94 -223q72 39 112.5 73.5t64 90t23.5 145.5v1001h316v-989q0 -158 -51.5 -263t-140.5 -169.5t-220 -118.5zM80 1477q0 76 51 127t131 51t132.5 -51.5t52.5 -126.5q0 -78 -52.5 -129.5t-132.5 -51.5t-131 51.5t-51 129.5z" />
<glyph unicode="k" horiz-adv-x="1042" d="M106 0v1520l316 32v-1552h-316zM432 594l295 493h309l-291 -477l314 -610h-344z" />
<glyph unicode="l" horiz-adv-x="559" d="M96 260v1260l316 32v-1278q0 -59 49 -59q20 0 45 8l59 -219q-82 -39 -182 -39q-135 0 -211 78t-76 217z" />
<glyph unicode="m" horiz-adv-x="1562" d="M106 0v1087h277l20 -129q113 164 283 164q82 0 141.5 -44t87.5 -128q59 86 130 129t161 43q117 0 187.5 -86t70.5 -231v-805h-311v764q0 123 -74 123q-72 0 -137 -129v-758h-311v764q0 123 -72 123q-41 0 -73.5 -33t-65.5 -96v-758h-314z" />
<glyph unicode="n" d="M106 0v1087h277l23 -129q59 82 130.5 123t163.5 41q127 0 200 -85t73 -232v-805h-316v762q0 68 -19.5 95.5t-57.5 27.5q-41 0 -79 -34t-79 -99v-752h-316z" />
<glyph unicode="o" horiz-adv-x="1093" d="M59 545q0 272 130 424.5t358 152.5q229 0 359 -148.5t130 -430.5q0 -270 -131 -424t-358 -154q-229 0 -358.5 149.5t-129.5 430.5zM385 545q0 -188 39 -268t123 -80t124 80.5t40 265.5q0 188 -39 267t-125 79q-84 0 -123 -80t-39 -264z" />
<glyph unicode="p" horiz-adv-x="1112" d="M106 -453v1540h281l14 -118q110 153 283 153h2q180 0 271.5 -149.5t91.5 -425.5q0 -172 -48.5 -304t-136.5 -205t-207 -73q-141 0 -235 113v-498zM422 289q59 -90 141 -90q160 0 160 344q0 199 -36 273.5t-105 74.5q-92 0 -160 -121v-481z" />
<glyph unicode="q" horiz-adv-x="1116" d="M63 545q0 172 50.5 303t141.5 202.5t212 71.5q147 0 252 -127l14 92h275v-1540l-316 33v516q-96 -131 -254 -131q-182 0 -278.5 152.5t-96.5 427.5zM389 545q0 -199 39 -273.5t111 -74.5q47 0 83.5 28.5t69.5 85.5v490q-33 45 -64.5 67.5t-74.5 22.5q-76 0 -120 -82 t-44 -264z" />
<glyph unicode="r" horiz-adv-x="749" d="M106 0v1087h277l25 -190q37 106 102 163.5t154 57.5q53 0 94 -16l-51 -303q-43 12 -86 12q-84 0 -129.5 -64.5t-69.5 -191.5v-555h-316z" />
<glyph unicode="s" horiz-adv-x="897" d="M4 125l150 168q127 -102 254 -103q63 0 99 28t36 77q0 39 -15.5 63.5t-57.5 47t-130 53.5q-150 51 -218.5 130t-68.5 199q0 94 49.5 170t141.5 120t217 44q108 0 202.5 -34.5t165.5 -98.5l-114 -172q-123 80 -232 80q-57 0 -87.5 -23.5t-30.5 -64.5q0 -31 15 -52.5 t58 -43t129 -51.5q152 -51 224.5 -129t72.5 -211q0 -164 -125 -260.5t-319 -96.5q-125 0 -232.5 43t-183.5 117z" />
<glyph unicode="t" horiz-adv-x="720" d="M2 868v219h131v236l316 37v-273h223l-33 -219h-190v-540q0 -113 86 -113q47 0 102 31l104 -195q-55 -41 -127.5 -63.5t-146.5 -22.5q-166 0 -250 94.5t-84 264.5v544h-131z" />
<glyph unicode="u" horiz-adv-x="1062" d="M98 291v796h316v-772q0 -116 81 -116h1q80 0 143 118v770h315v-1087h-274l-14 131q-106 -166 -289 -166q-133 0 -206 88t-73 238z" />
<glyph unicode="v" horiz-adv-x="962" d="M-10 1087h329l168 -847l175 847h313l-303 -1087h-373z" />
<glyph unicode="w" horiz-adv-x="1406" d="M10 1087h309l99 -849l143 849h301l129 -849l109 849h297l-199 -1087h-373l-120 805l-121 -805h-369z" />
<glyph unicode="x" horiz-adv-x="960" d="M-20 0l311 571l-283 516h338l133 -352l127 352h326l-264 -505l313 -582h-342l-168 412l-160 -412h-331z" />
<glyph unicode="y" horiz-adv-x="974" d="M-10 1087h323l168 -886l187 886h317l-309 -1089q-117 -424 -570 -453l-34 219q141 20 210.5 72.5t110.5 163.5h-112z" />
<glyph unicode="z" horiz-adv-x="856" d="M23 0v223l444 627h-408v237h760v-223l-444 -624h454l-28 -240h-778z" />
<glyph unicode="{" horiz-adv-x="600" d="M16 586v260q70 0 94.5 34.5t24.5 120.5v383q0 117 36 190t128 109.5t262 36.5v-221q-80 0 -108.5 -25.5t-28.5 -95.5v-389q0 -129 -47 -187.5t-152 -86.5q102 -23 151.5 -83.5t49.5 -187.5v-389q0 -70 28.5 -95.5t106.5 -25.5v-221q-168 0 -261 37t-129 109.5t-36 189.5 v383q0 86 -24.5 120t-94.5 34z" />
<glyph unicode="|" horiz-adv-x="681" d="M195 -215v1874h294v-1874h-294z" />
<glyph unicode="}" horiz-adv-x="600" d="M39 -66q78 0 105.5 26t27.5 95v389q0 127 49 186.5t154 84.5q-106 29 -153.5 87t-47.5 187v389q0 70 -28.5 95.5t-106.5 25.5v221q170 0 262 -36.5t128 -109.5t36 -190v-383q0 -86 24.5 -120.5t92.5 -34.5v-260q-70 0 -93.5 -34t-23.5 -120v-383q0 -117 -36 -189.5 t-129 -109.5t-261 -37v221z" />
<glyph unicode="~" horiz-adv-x="970" d="M31 580q53 115 124.5 183t178.5 68q59 0 104 -18t94 -53q43 -25 67 -36t50 -11q41 0 67.5 24.5t61.5 73.5l162 -82q-53 -113 -124 -180.5t-175 -67.5q-61 0 -107.5 19.5t-97.5 54.5q-43 25 -65.5 36t-48.5 11q-43 0 -70 -25.5t-62 -78.5z" />
<glyph unicode="&#xa2;" horiz-adv-x="892" d="M59 535q0 227 96.5 377.5t266.5 193.5v309h221v-299q137 -23 248 -127l-131 -180q-47 37 -90 54.5t-92 17.5q-94 0 -141.5 -78t-47.5 -266q0 -180 48 -252t138 -72q47 0 86 15.5t93 52.5l137 -187q-115 -100 -248 -123v-301h-223v310q-172 41 -266.5 184t-94.5 371z" />
<glyph unicode="&#xa3;" horiz-adv-x="1005" d="M47 0v227q70 23 102.5 54.5t42 73.5t9.5 118v164h-127v166h127v196q0 184 104.5 299t298.5 115q125 0 219.5 -50t163.5 -153l-188 -135q-39 53 -76 77t-86 24q-66 0 -96.5 -43t-30.5 -132v-198h332v-166h-332v-145q0 -95 -26.5 -151t-104.5 -101h571l-35 -240h-868z" />
<glyph unicode="&#xa5;" horiz-adv-x="1058" d="M-18 1384h323l230 -579l227 579h315l-325 -663h180v-166h-244v-149h244v-166h-244v-240h-313v240h-242v166h242v149h-242v166h176z" />
<glyph unicode="&#xa8;" horiz-adv-x="874" d="M66 1475q0 66 46 111.5t112 45.5q67 0 112 -45t45 -112q0 -68 -45 -114t-112 -46q-66 0 -112 46t-46 114zM500 1475q0 66 46 111.5t112 45.5q67 0 113.5 -45t46.5 -112q0 -68 -45.5 -114t-114.5 -46q-66 0 -112 46t-46 114z" />
<glyph unicode="&#xa9;" horiz-adv-x="1492" d="M115 885q0 201 84 355.5t229 240.5t320 86q176 0 319 -86t227 -241t84 -355q0 -199 -83 -353.5t-227 -239.5t-320 -85q-174 0 -319.5 85t-229.5 239.5t-84 353.5zM295 885q0 -156 58.5 -273.5t161.5 -181t233 -63.5q129 0 231 63.5t160.5 181t58.5 273.5 q0 158 -58.5 276.5t-160.5 182t-231 63.5q-130 0 -233 -63.5t-161.5 -182.5t-58.5 -276zM424 887q0 186 91 293.5t241 107.5q137 0 241 -100l-92 -121q-37 27 -65.5 38t-63.5 11q-59 0 -96 -54t-37 -175q0 -225 135 -225q39 0 71 13t69 42l88 -125q-51 -51 -116 -80 t-136 -29q-154 0 -242 104.5t-88 299.5z" />
<glyph unicode="&#xab;" horiz-adv-x="1206" d="M70 481v201l352 455l196 -129l-241 -424l241 -426l-196 -129zM588 481v201l352 455l196 -129l-241 -424l241 -426l-196 -129z" />
<glyph unicode="&#xad;" horiz-adv-x="768" d="M84 518v246h600v-246h-600z" />
<glyph unicode="&#xae;" horiz-adv-x="1173" d="M74 993q0 164 66.5 291t184 197.5t263.5 70.5q145 0 262 -70.5t183.5 -197.5t66.5 -291q0 -162 -66.5 -288.5t-183.5 -197.5t-262 -71t-263 71t-184.5 197.5t-66.5 288.5zM223 993q0 -129 47 -224t129 -146.5t189 -51.5q162 0 261 114t99 308q0 197 -99 311.5t-261 114.5 q-106 0 -188.5 -52t-129.5 -148.5t-47 -225.5zM391 721v577h158q123 0 186.5 -46t63.5 -136q0 -51 -29 -91t-76 -62l135 -242h-155l-105 211h-41v-211h-137zM528 1049h54q35 0 55 17t20 56q0 68 -77 68h-52v-141z" />
<glyph unicode="&#xb4;" horiz-adv-x="653" d="M67 1432l408 268l123 -232l-445 -192z" />
<glyph unicode="&#xb8;" horiz-adv-x="620" d="M68 -473l72 141q57 -31 118 -30q84 0 84 63q0 37 -42 54.5t-130 17.5l31 260h170v-137q96 -12 145.5 -62.5t49.5 -134.5q0 -104 -76 -169t-207 -65q-125 0 -215 62z" />
<glyph unicode="&#xbb;" horiz-adv-x="1202" d="M70 158l241 426l-241 424l194 129l354 -455v-201l-354 -452zM586 158l241 426l-241 424l194 129l354 -455v-201l-354 -452z" />
<glyph unicode="&#x2c6;" horiz-adv-x="837" d="M68 1397l262 282h190l263 -282l-111 -121l-246 188l-248 -188z" />
<glyph unicode="&#x2da;" horiz-adv-x="653" d="M67 1507q0 115 73 190t193 75q121 0 193 -75t72 -190t-72 -190.5t-193 -75.5t-193.5 76t-72.5 190zM251 1507q0 -106 82 -106q80 0 80 106q0 104 -80 105q-82 -1 -82 -105z" />
<glyph unicode="&#x2dc;" horiz-adv-x="831" d="M61 1380q37 104 100.5 169t143.5 65q41 0 71.5 -13.5t69.5 -39.5q4 -2 20.5 -12.5t29.5 -15.5t26 -5q29 0 50 19.5t46 64.5l152 -72q-37 -106 -100.5 -168.5t-143.5 -62.5q-41 0 -68.5 12t-70.5 39q-27 18 -42.5 26.5t-33.5 8.5q-31 0 -51.5 -19.5t-46.5 -66.5z" />
<glyph unicode="&#x400;" horiz-adv-x="970" d="M113 0v1419h802l-34 -233h-441v-350h385v-230h-385v-368h471v-238h-798zM248 1712l119 232l410 -250l-80 -156z" />
<glyph unicode="&#x401;" horiz-adv-x="970" d="M113 0v1419h802l-34 -233h-441v-350h385v-230h-385v-368h471v-238h-798zM143 1733q0 66 46 111.5t112 45.5q67 0 112 -45t45 -112q0 -68 -45 -114t-112 -46q-66 0 -112 46t-46 114zM577 1733q0 66 46 111.5t112 45.5q67 0 113.5 -45t46.5 -112q0 -68 -45.5 -114 t-114.5 -46q-66 0 -112 46t-46 114z" />
<glyph unicode="&#x402;" horiz-adv-x="1394" d="M14 1171v248h992l-35 -248h-305v-323q113 113 284 113q189 0 295.5 -122t104.5 -339v-285q0 -240 -112 -363.5t-312 -193.5l-92 227q109 49 148.5 118t39.5 198v299q0 111 -40 164t-124 53q-115 0 -192 -88v-629h-328v1171h-324z" />
<glyph unicode="&#x403;" horiz-adv-x="946" d="M113 0v1419h835l-33 -258h-475v-1161h-327zM282 1696l410 250l119 -232l-449 -176z" />
<glyph unicode="&#x404;" d="M61 713q0 240 75 405.5t208 250.5t307 85q121 0 217.5 -39t182.5 -117l-156 -180q-113 96 -227 96q-117 0 -191 -91t-84 -281h430v-230h-430q8 -203 82 -302t195 -99q72 0 127 28.5t123 84.5l145 -177q-76 -80 -182.5 -131t-239.5 -51q-172 0 -303 84t-205 252t-74 412z " />
<glyph unicode="&#x405;" horiz-adv-x="1062" d="M10 166l160 178q76 -66 152.5 -100.5t162.5 -34.5q94 0 145.5 49t51.5 131q0 78 -47 125t-178 94q-213 80 -303.5 180.5t-90.5 255.5q0 121 61.5 214.5t169 144.5t243.5 51q143 0 252.5 -46t199.5 -136l-149 -172q-133 115 -273 114q-78 0 -123 -38.5t-45 -106.5 q0 -45 20.5 -75.5t72 -59.5t151.5 -66q131 -49 212 -105t124 -140t43 -209q0 -131 -62.5 -232.5t-180 -159t-275.5 -57.5q-297 0 -494 201z" />
<glyph unicode="&#x406;" horiz-adv-x="550" d="M113 0v1419h327v-1419h-327z" />
<glyph unicode="&#x407;" horiz-adv-x="550" d="M-98 1733q0 66 46 111.5t112 45.5q67 0 112 -45t45 -112q0 -68 -45 -114t-112 -46q-66 0 -112 46t-46 114zM113 0v1419h327v-1419h-327zM336 1733q0 66 46 111.5t112 45.5q67 0 113.5 -45t46.5 -112q0 -68 -45.5 -114t-114.5 -46q-66 0 -112 46t-46 114z" />
<glyph unicode="&#x408;" horiz-adv-x="593" d="M-27 -111q80 35 120 78t53.5 102.5t13.5 157.5v1192h327v-1204q0 -242 -114.5 -364.5t-313.5 -192.5z" />
<glyph unicode="&#x409;" horiz-adv-x="1730" d="M0 197q61 29 93 74.5t51.5 138t39.5 286.5l76 725l2 -2h819l-2 -2v-485h103q254 0 388 -112.5t134 -340.5q0 -242 -139.5 -360.5t-382.5 -118.5h-430v1169h-215l-50 -491q-27 -252 -68.5 -389t-120.5 -211t-220 -113zM1079 238h82q103 0 152 56t49 181q0 119 -50 174.5 t-161 55.5h-72v-467z" />
<glyph unicode="&#x40a;" horiz-adv-x="1759" d="M113 0v1419h327v-516h344v516h328v-516h98q246 0 384.5 -111.5t138.5 -328.5q0 -233 -139.5 -348t-391.5 -115h-418v670h-344v-670h-327zM1112 240h90q96 0 144.5 52t48.5 167q0 109 -47.5 160t-149.5 51h-86v-430z" />
<glyph unicode="&#x40b;" horiz-adv-x="1394" d="M14 1171v248h992l-35 -248h-305v-323q113 113 284 113q189 0 294.5 -122t105.5 -339v-500h-328v500q0 111 -40 164t-124 53q-115 0 -192 -88v-629h-328v1171h-324z" />
<glyph unicode="&#x40c;" horiz-adv-x="1171" d="M113 0v1419h327v-559h133l263 559h313l-307 -645l342 -774h-348l-271 621h-125v-621h-327zM321 1696l410 250l119 -232l-449 -176z" />
<glyph unicode="&#x40d;" horiz-adv-x="1226" d="M113 0v1419h311v-549q0 -166 -10.5 -288.5t-28.5 -257.5l344 1095h385v-1419h-313v541q0 276 41 555l-340 -1096h-389zM346 1712l119 232l410 -250l-80 -156z" />
<glyph unicode="&#x40e;" d="M-29 1419h330l258 -858l225 858h328l-338 -997q-55 -164 -129 -258t-176 -138t-260 -61l-41 221q125 16 190.5 57.5t108.5 133.5h-107zM213 1849l170 31q16 -66 53 -94.5t103 -28.5q63 0 101 29t53 94l172 -31q-12 -141 -96.5 -226t-229.5 -85q-148 0 -230.5 84 t-95.5 227z" />
<glyph unicode="&#x40f;" horiz-adv-x="1220" d="M113 0v1419h327v-1163h340v1163h328v-1419h-369v-338h-223l-35 338h-368z" />
<glyph unicode="&#x410;" horiz-adv-x="1112" d="M-23 0l383 1419h394l381 -1419h-338l-64 309h-360l-64 -309h-332zM422 545h262l-131 635z" />
<glyph unicode="&#x411;" horiz-adv-x="1112" d="M113 0v1419h819l-33 -248h-459v-260h125q250 0 384 -111.5t134 -330.5q0 -233 -139 -351t-385 -118h-446zM440 238h99q104 0 153 54t49 173q0 111 -50 165t-159 54h-92v-446z" />
<glyph unicode="&#x412;" horiz-adv-x="1144" d="M113 0v1419h370q272 0 420 -89t148 -273q0 -123 -70 -200t-178 -105q135 -29 218 -107t83 -231q0 -414 -572 -414h-419zM440 238h95q114 0 173.5 43t59.5 149q0 201 -217 201h-111v-393zM440 850h90q188 0 189 174q0 84 -49 124t-156 40h-74v-338z" />
<glyph unicode="&#x413;" horiz-adv-x="946" d="M113 0v1419h835l-33 -258h-475v-1161h-327z" />
<glyph unicode="&#x414;" horiz-adv-x="1189" d="M-12 250h84q53 68 83.5 192.5t63.5 413.5l60 563h763v-1169h115v-588h-223l-35 338h-653l-35 -338h-223v588zM332 250h395v928h-170l-29 -293q-18 -193 -42.5 -310.5t-60.5 -191.5t-93 -133z" />
<glyph unicode="&#x415;" horiz-adv-x="970" d="M113 0v1419h802l-34 -233h-441v-350h385v-230h-385v-368h471v-238h-798z" />
<glyph unicode="&#x416;" horiz-adv-x="1685" d="M-14 0l338 774l-306 645h316l258 -563h102v563h299v-563h101l262 563h313l-307 -645l340 -774h-348l-254 623h-107v-623h-299v623h-110l-258 -623h-340z" />
<glyph unicode="&#x417;" horiz-adv-x="1005" d="M-8 164l170 168q63 -63 123.5 -93t132.5 -30q94 0 148.5 54t54.5 157q0 100 -54.5 155.5t-163.5 55.5h-137l37 235h107q88 0 134 47.5t46 133.5q0 76 -38 123t-120 47q-121 0 -252 -113l-149 164q182 186 444 186q137 0 238.5 -48t157 -133t55.5 -192q0 -125 -74 -210 t-221 -117q160 -20 247 -108.5t87 -242.5q0 -131 -65.5 -230t-184.5 -153.5t-271 -54.5q-149 0 -259.5 50.5t-192.5 148.5z" />
<glyph unicode="&#x418;" horiz-adv-x="1226" d="M113 0v1419h311v-549q0 -166 -10.5 -288.5t-28.5 -257.5l344 1095h385v-1419h-313v541q0 276 41 555l-340 -1096h-389z" />
<glyph unicode="&#x419;" horiz-adv-x="1226" d="M113 0v1419h311v-549q0 -166 -10.5 -288.5t-28.5 -257.5l344 1095h385v-1419h-313v541q0 276 41 555l-340 -1096h-389zM288 1849l170 31q16 -66 53 -94.5t103 -28.5q63 0 101 29t53 94l172 -31q-12 -141 -96.5 -226t-229.5 -85q-148 0 -230.5 84t-95.5 227z" />
<glyph unicode="&#x41a;" horiz-adv-x="1171" d="M113 0v1419h327v-559h133l263 559h313l-307 -645l342 -774h-348l-271 621h-125v-621h-327z" />
<glyph unicode="&#x41b;" horiz-adv-x="1212" d="M0 197q61 29 93 74.5t51.5 138t39.5 286.5l76 723h840v-1419h-328v1169h-231l-52 -491q-27 -252 -69.5 -389t-120.5 -211t-221 -113z" />
<glyph unicode="&#x41c;" horiz-adv-x="1474" d="M61 0l95 1419h409l178 -966l164 966h412l94 -1419h-313l-19 561q-8 246 -8 363q0 143 4 211l-186 -985h-307l-197 985q8 -156 8 -330q0 -78 -4 -250l-18 -555h-312z" />
<glyph unicode="&#x41d;" horiz-adv-x="1232" d="M113 0v1419h327v-553h355v553h327v-1419h-327v610h-355v-610h-327z" />
<glyph unicode="&#x41e;" horiz-adv-x="1290" d="M61 711q0 358 153 550.5t431 192.5q281 0 432.5 -189.5t151.5 -553.5q0 -360 -152.5 -553t-431.5 -193t-431.5 190.5t-152.5 555.5zM403 711q0 -274 59.5 -390t182.5 -116q125 0 183.5 115.5t58.5 390.5q0 270 -58.5 386.5t-183.5 116.5t-183.5 -116.5t-58.5 -386.5z" />
<glyph unicode="&#x41f;" horiz-adv-x="1230" d="M113 0v1419h1007v-1419h-329v1167h-351v-1167h-327z" />
<glyph unicode="&#x420;" horiz-adv-x="1114" d="M113 0v1419h405q273 0 419 -116.5t146 -344.5q0 -240 -142 -361.5t-392 -121.5h-109v-475h-327zM440 713h82q115 0 170.5 56t55.5 187q0 117 -54.5 173.5t-171.5 56.5h-82v-473z" />
<glyph unicode="&#x421;" d="M61 713q0 238 76 404.5t208 251.5t304 85q123 0 219.5 -39t182.5 -117l-156 -182q-55 47 -109.5 70.5t-115.5 23.5q-266 0 -267 -497q0 -494 269 -494q70 0 124 27.5t122 81.5l147 -181q-76 -80 -181.5 -131t-232.5 -51q-178 0 -310 84t-206 252t-74 412z" />
<glyph unicode="&#x422;" horiz-adv-x="1003" d="M14 1169v250h992l-35 -250h-305v-1169h-328v1169h-324z" />
<glyph unicode="&#x423;" d="M-29 1419h330l258 -858l225 858h328l-338 -997q-55 -164 -129 -258t-176 -138t-260 -61l-41 221q125 16 190.5 57.5t108.5 133.5h-107z" />
<glyph unicode="&#x424;" horiz-adv-x="1576" d="M35 709q0 309 158.5 463.5t435.5 166.5v158h319v-158q276 -14 435 -166.5t159 -453.5q0 -309 -158.5 -464t-435.5 -167v-168h-319v168q-276 14 -435 167t-159 454zM367 709q0 -211 66.5 -308.5t211.5 -109.5v846q-150 -14 -214 -112.5t-64 -315.5zM932 291 q149 14 214.5 113.5t65.5 314.5q0 211 -67.5 308t-212.5 110v-846z" />
<glyph unicode="&#x425;" horiz-adv-x="1085" d="M-12 0l354 754l-328 665h348l177 -461l188 461h340l-336 -653l367 -766h-350l-213 547l-205 -547h-342z" />
<glyph unicode="&#x426;" horiz-adv-x="1273" d="M113 0v1419h327v-1163h340v1163h328v-1169h147v-588h-223l-35 338h-884z" />
<glyph unicode="&#x427;" horiz-adv-x="1153" d="M37 862v557h321v-538q0 -119 41 -169t127 -50q113 0 187 77v680h327v-1419h-327v526q-63 -55 -130 -81.5t-153 -26.5q-180 0 -286.5 117.5t-106.5 326.5z" />
<glyph unicode="&#x428;" horiz-adv-x="1681" d="M113 0v1419h319v-1163h256v1163h305v-1163h256v1163h322v-1419h-1458z" />
<glyph unicode="&#x429;" horiz-adv-x="1734" d="M113 0v1419h319v-1163h256v1163h305v-1163h256v1163h322v-1169h147v-588h-223l-35 338h-1347z" />
<glyph unicode="&#x42a;" horiz-adv-x="1335" d="M14 1171v248h654v-487h120q254 0 388.5 -112.5t134.5 -340.5q0 -242 -138.5 -360.5t-384.5 -118.5h-448v1174l-2 -3h-324zM668 238h100q102 0 151.5 56t49.5 181q0 119 -50.5 174.5t-158.5 55.5h-92v-467z" />
<glyph unicode="&#x42b;" horiz-adv-x="1591" d="M113 0v1419h327v-487h101q254 0 388 -112.5t134 -340.5q0 -240 -138.5 -359.5t-375.5 -119.5h-436zM440 238h80q103 0 153 56t50 181q0 119 -49 174.5t-158 55.5h-76v-467zM1151 0v1419h328v-1419h-328z" />
<glyph unicode="&#x42c;" horiz-adv-x="1110" d="M113 0v1419h327v-487h121q254 0 388 -112.5t134 -340.5q0 -242 -138 -360.5t-384 -118.5h-448zM440 238h101q102 0 151 56t49 181q0 119 -50 174.5t-159 55.5h-92v-467z" />
<glyph unicode="&#x42d;" horiz-adv-x="1007" d="M10 129l146 176q57 -47 107 -69.5t116 -22.5q113 0 171 95t64 304h-419v230h419q-8 201 -61 286.5t-154 85.5q-66 0 -117 -22.5t-112 -73.5l-150 176q86 82 180.5 121t223.5 39q252 0 387 -181t135 -554t-144.5 -563.5t-406.5 -190.5q-225 0 -385 164z" />
<glyph unicode="&#x42e;" horiz-adv-x="1744" d="M113 0v1419h327v-557h133q74 592 543 592q273 0 420 -189.5t147 -553.5q0 -360 -147 -553t-420 -193q-252 0 -388 163t-159 478h-129v-606h-327zM893 705q0 -268 54 -383t169 -115q117 0 171 114.5t54 389.5q0 272 -54 387.5t-171 115.5q-115 0 -169 -116.5t-54 -392.5z " />
<glyph unicode="&#x42f;" horiz-adv-x="1136" d="M4 0l275 573q-111 53 -167.5 148.5t-56.5 243.5q0 455 543 454h428v-1419h-328v514h-137l-207 -514h-350zM393 956q0 -106 51.5 -159.5t139.5 -53.5h114v445h-90q-109 0 -162 -56.5t-53 -175.5z" />
<glyph unicode="&#x430;" horiz-adv-x="1017" d="M45 305q0 178 120 272.5t347 94.5h86v51q0 96 -35 134t-123 38q-100 0 -256 -55l-71 202q90 39 192.5 59.5t190.5 20.5q211 0 311 -94t100 -287v-440q0 -55 14.5 -81.5t49.5 -41.5l-66 -207q-94 8 -153.5 43t-92.5 109q-100 -158 -292 -158q-147 0 -234.5 93.5 t-87.5 246.5zM354 332q0 -70 28 -106t79 -36q43 0 78.5 27t58.5 76v203h-57q-96 0 -141.5 -40t-45.5 -124z" />
<glyph unicode="&#x431;" d="M59 608q0 240 37 390.5t126 245.5t249 153q113 41 177.5 70.5t148.5 80.5l114 -196q-68 -45 -138.5 -79t-180.5 -75q-80 -31 -126 -68.5t-72.5 -104.5t-37.5 -181q102 168 289 168q105 0 187.5 -57.5t132 -171t49.5 -275.5q0 -260 -127 -401.5t-348 -141.5 q-227 0 -353.5 153.5t-126.5 489.5zM385 502q0 -166 38 -234.5t114 -68.5q75 0 113 61.5t38 237.5q0 162 -32.5 222t-100.5 60q-51 0 -96 -33.5t-74 -105.5v-139z" />
<glyph unicode="&#x432;" horiz-adv-x="1036" d="M106 0v1079q244 43 402 43q201 0 314.5 -77.5t113.5 -217.5q0 -90 -55.5 -149.5t-163.5 -81.5q260 -30 260 -266q0 -166 -120 -248t-331 -82h-420zM422 205h98q68 0 102.5 32.5t34.5 114.5q0 78 -31.5 110t-103.5 32h-100v-289zM422 659h88q57 0 88 30t31 102 q0 74 -30 102.5t-95 28.5q-21 0 -82 -4v-259z" />
<glyph unicode="&#x433;" horiz-adv-x="804" d="M106 0v1087h711l-37 -239h-358v-848h-316z" />
<glyph unicode="&#x434;" horiz-adv-x="1038" d="M-4 233h65q31 25 51.5 66t37 130t28.5 253l29 405h708v-854h105v-571h-213l-35 338h-528l-35 -338h-213v571zM291 233h332v646h-146l-12 -174q-16 -215 -55 -317.5t-119 -154.5z" />
<glyph unicode="&#x435;" horiz-adv-x="1038" d="M59 539q0 262 123 422.5t346 160.5q215 0 338 -144t123 -413q0 -65 -6 -114h-606q12 -143 63.5 -198.5t145.5 -55.5q61 0 116.5 22.5t120.5 69.5l129 -174q-168 -150 -391 -150q-246 0 -374 152.5t-128 421.5zM375 641h305v14q0 129 -34 193.5t-114 64.5 q-72 0 -110.5 -60t-46.5 -212z" />
<glyph unicode="&#x436;" horiz-adv-x="1396" d="M-4 0l242 582l-222 505h285l176 -428h84v428h275v-428h84l178 428h282l-219 -505l240 -582h-307l-179 467h-79v-467h-275v467h-80l-178 -467h-307z" />
<glyph unicode="&#x437;" horiz-adv-x="925" d="M2 98l145 170q66 -43 119 -60.5t119 -17.5q156 0 156 140q0 68 -42 98.5t-126 30.5h-140l17 203h100q150 0 150 129q0 57 -34 84.5t-91 27.5q-55 0 -102.5 -17.5t-98.5 -51.5l-143 161q164 127 399 127q168 0 278.5 -82t110.5 -219q0 -92 -56 -151.5t-173 -89.5 q139 -20 207.5 -84t68.5 -183q0 -170 -125 -259t-335 -89q-242 0 -404 133z" />
<glyph unicode="&#x438;" horiz-adv-x="1095" d="M106 0v1087h293v-393q0 -215 -43 -391l316 784h317v-1087h-291v389q0 225 45 393l-321 -782h-316z" />
<glyph unicode="&#x439;" horiz-adv-x="1095" d="M106 0v1087h293v-393q0 -215 -43 -391l316 784h317v-1087h-291v389q0 225 45 393l-321 -782h-316zM223 1608l170 30q16 -66 53 -94t103 -28q63 0 101 28.5t53 93.5l172 -30q-12 -141 -96.5 -226.5t-229.5 -85.5q-148 0 -230.5 84t-95.5 228z" />
<glyph unicode="&#x43a;" horiz-adv-x="1026" d="M106 0v1087h316v-425h90l209 425h295l-252 -503l272 -584h-323l-207 469h-84v-469h-316z" />
<glyph unicode="&#x43b;" horiz-adv-x="1054" d="M16 203q55 27 81 60.5t39.5 109.5t23.5 239l30 475h758v-1087h-315v856h-166l-21 -260q-16 -233 -46.5 -348t-98.5 -176.5t-207 -98.5z" />
<glyph unicode="&#x43c;" horiz-adv-x="1257" d="M51 0l82 1087h369l125 -706l125 706h370l84 -1087h-295l-16 397q-2 47 -2 138q0 141 8 278l-145 -702h-258l-146 702q10 -170 10 -285q0 -86 -2 -131l-14 -397h-295z" />
<glyph unicode="&#x43d;" horiz-adv-x="1087" d="M106 0v1087h316v-419h244v419h315v-1087h-315v436h-244v-436h-316z" />
<glyph unicode="&#x43e;" horiz-adv-x="1093" d="M59 545q0 272 130 424.5t358 152.5q229 0 359 -148.5t130 -430.5q0 -270 -131 -424t-358 -154q-229 0 -358.5 149.5t-129.5 430.5zM385 545q0 -188 39 -268t123 -80t124 80.5t40 265.5q0 188 -39 267t-125 79q-84 0 -123 -80t-39 -264z" />
<glyph unicode="&#x43f;" horiz-adv-x="1081" d="M106 0v1087h869v-1087h-316v854h-237v-854h-316z" />
<glyph unicode="&#x440;" horiz-adv-x="1112" d="M106 -453v1540h281l14 -118q111 154 285 153q180 0 271.5 -149.5t91.5 -425.5q0 -172 -48.5 -304t-136.5 -205t-207 -73q-141 0 -235 113v-498zM422 289q59 -90 141 -90q160 0 160 344q0 199 -36 273.5t-105 74.5q-92 0 -160 -121v-481z" />
<glyph unicode="&#x441;" horiz-adv-x="892" d="M59 535q0 178 60.5 311t172 204.5t261.5 71.5q102 0 184 -32.5t154 -100.5l-131 -180q-47 37 -90 54.5t-92 17.5q-94 0 -141.5 -78t-47.5 -266q0 -180 48 -252t138 -72q47 0 86 15.5t93 52.5l137 -187q-141 -129 -334 -129q-233 0 -365.5 149.5t-132.5 420.5z" />
<glyph unicode="&#x442;" horiz-adv-x="880" d="M4 854v233h889l-39 -233h-256v-854h-315v854h-279z" />
<glyph unicode="&#x443;" horiz-adv-x="974" d="M-10 1087h323l168 -886l187 886h317l-309 -1089q-117 -424 -570 -453l-34 219q141 20 210.5 72.5t110.5 163.5h-112z" />
<glyph unicode="&#x444;" horiz-adv-x="1560" d="M63 543q0 279 91.5 429t261.5 150q133 0 217 -104v534l295 -32v-506q88 109 229 108q340 1 340 -579q0 -180 -43 -310.5t-123 -199t-184 -68.5q-127 0 -219 109v-494l-295 -33v531q-94 -113 -223 -113q-104 0 -182 68.5t-121.5 198.5t-43.5 311zM381 543 q0 -188 32.5 -268t94.5 -80q72 -1 125 81v537q-53 80 -125 80q-66 0 -96.5 -78t-30.5 -272zM928 276q53 -82 127 -81q63 0 94 78.5t31 269.5q0 197 -29 273.5t-92 76.5q-39 0 -70 -20.5t-61 -63.5v-533z" />
<glyph unicode="&#x445;" horiz-adv-x="960" d="M-20 0l311 571l-283 516h338l133 -352l127 352h326l-264 -505l313 -582h-342l-168 412l-160 -412h-331z" />
<glyph unicode="&#x446;" horiz-adv-x="1107" d="M106 0v1087h316v-854h225v854h316v-854h149v-571h-213l-35 338h-758z" />
<glyph unicode="&#x447;" horiz-adv-x="1024" d="M51 621v466h316v-432q0 -61 22.5 -88.5t67.5 -27.5q39 0 77.5 19.5t67.5 49.5v479h316v-1087h-316v410q-115 -104 -266 -105q-139 0 -212 83t-73 233z" />
<glyph unicode="&#x448;" horiz-adv-x="1445" d="M106 0v1087h300v-854h186v854h264v-854h184v854h299v-1087h-1233z" />
<glyph unicode="&#x449;" horiz-adv-x="1482" d="M106 0v1087h300v-854h186v854h264v-854h184v854h299v-854h148v-571h-213l-35 338h-1133z" />
<glyph unicode="&#x44a;" horiz-adv-x="1146" d="M4 862v225h594v-339h55q244 0 356.5 -94.5t112.5 -280.5q0 -188 -115.5 -280.5t-322.5 -92.5h-401v862h-279zM598 209h70q69 0 103 39t34 131q0 90 -33 130t-115 40h-59v-340z" />
<glyph unicode="&#x44b;" horiz-adv-x="1427" d="M106 0v1087h316v-339h45q238 0 350.5 -94.5t112.5 -280.5q0 -188 -117 -280.5t-324 -92.5h-383zM422 209h55q72 0 105.5 39t33.5 131t-32.5 131t-116.5 39h-45v-340zM1006 0v1087h315v-1087h-315z" />
<glyph unicode="&#x44c;" horiz-adv-x="970" d="M106 0v1087h316v-339h55q244 0 356.5 -94.5t112.5 -280.5q0 -188 -115.5 -280.5t-322.5 -92.5h-402zM422 209h70q69 0 103 39t34 131q0 90 -33 130t-115 40h-59v-340z" />
<glyph unicode="&#x44d;" horiz-adv-x="905" d="M14 88l138 178q53 -37 95 -53t93 -16q82 0 133 60t59 206h-344v184h342q-8 135 -49 190.5t-114 55.5q-100 0 -195 -72l-133 174q145 127 352 127q213 0 334 -143t121 -424t-128 -435.5t-362 -154.5q-102 0 -185 31t-157 92z" />
<glyph unicode="&#x44e;" horiz-adv-x="1509" d="M106 0v1087h316v-425h121q29 221 143.5 340.5t304.5 119.5q211 0 335 -148.5t124 -430.5q0 -176 -56.5 -307.5t-161 -201t-241.5 -69.5q-193 0 -307.5 122t-142.5 355h-119v-442h-316zM850 545q0 -186 34 -266t107 -80q76 0 109 79.5t33 264.5q0 188 -33 267t-109 79 t-108.5 -78t-32.5 -266z" />
<glyph unicode="&#x44f;" horiz-adv-x="1034" d="M4 0l223 459q-154 84 -153 274q0 174 119.5 264t353.5 90h379v-1087h-316v381h-110l-170 -381h-326zM391 731q0 -84 35 -123t111 -39h73v316h-67q-78 0 -115 -38t-37 -116z" />
<glyph unicode="&#x450;" horiz-adv-x="1038" d="M59 539q0 262 123 422.5t346 160.5q215 0 338 -144t123 -413q0 -65 -6 -114h-606q12 -143 63.5 -198.5t145.5 -55.5q61 0 116.5 22.5t120.5 69.5l129 -174q-168 -150 -391 -150q-246 0 -374 152.5t-128 421.5zM285 1468l123 232l408 -268l-86 -156zM375 641h305v14 q0 129 -34 193.5t-114 64.5q-72 0 -110.5 -60t-46.5 -212z" />
<glyph unicode="&#x451;" horiz-adv-x="1038" d="M59 539q0 262 123 422.5t346 160.5q215 0 338 -144t123 -413q0 -65 -6 -114h-606q12 -143 63.5 -198.5t145.5 -55.5q61 0 116.5 22.5t120.5 69.5l129 -174q-168 -150 -391 -150q-246 0 -374 152.5t-128 421.5zM156 1475q0 66 46 111.5t112 45.5q67 0 112 -45t45 -112 q0 -68 -45 -114t-112 -46q-66 0 -112 46t-46 114zM375 641h305v14q0 129 -34 193.5t-114 64.5q-72 0 -110.5 -60t-46.5 -212zM590 1475q0 66 46 111.5t112 45.5q67 0 113.5 -45t46.5 -112q0 -68 -45.5 -114t-114.5 -46q-66 0 -112 46t-46 114z" />
<glyph unicode="&#x452;" horiz-adv-x="1083" d="M12 1223v186h107v111l315 32v-143h242v-186h-242v-252q59 78 126 114.5t153 36.5q127 0 199.5 -87t72.5 -242v-674q0 -166 -52 -275.5t-140 -176t-220 -120.5l-106 230q72 39 114 73.5t65.5 94t23.5 155.5v652q0 74 -20.5 103.5t-59.5 29.5q-78 0 -156 -133v-752h-315 v1223h-107z" />
<glyph unicode="&#x453;" horiz-adv-x="804" d="M106 0v1087h711l-37 -239h-358v-848h-316zM184 1432l408 268l123 -232l-445 -192z" />
<glyph unicode="&#x454;" horiz-adv-x="907" d="M59 537q0 178 60.5 310t172 203.5t261.5 71.5q197 0 340 -133l-131 -170q-49 39 -94 55.5t-95 16.5q-88 0 -138 -57.5t-58 -186.5h342v-184h-344q8 -143 60 -203.5t140 -60.5q50 0 92 16t91 53l135 -174q-145 -129 -334 -129q-236 0 -368 149.5t-132 422.5z" />
<glyph unicode="&#x455;" horiz-adv-x="897" d="M4 125l150 168q127 -102 254 -103q63 0 99 28t36 77q0 39 -15.5 63.5t-57.5 47t-130 53.5q-150 51 -218.5 130t-68.5 199q0 94 49.5 170t141.5 120t217 44q108 0 202.5 -34.5t165.5 -98.5l-114 -172q-123 80 -232 80q-57 0 -87.5 -23.5t-30.5 -64.5q0 -31 15 -52.5 t58 -43t129 -51.5q152 -51 224.5 -129t72.5 -211q0 -164 -125 -260.5t-319 -96.5q-125 0 -232.5 43t-183.5 117z" />
<glyph unicode="&#x456;" horiz-adv-x="530" d="M80 1477q0 76 51 127t131 51t132.5 -51.5t52.5 -126.5q0 -78 -52.5 -129.5t-132.5 -51.5t-131 51.5t-51 129.5zM106 0v1087h316v-1087h-316z" />
<glyph unicode="&#x457;" horiz-adv-x="530" d="M-113 1475q0 66 46 111.5t112 45.5q67 0 112 -45t45 -112q0 -68 -45 -114t-112 -46q-66 0 -112 46t-46 114zM106 0v1087h316v-1087h-316zM321 1475q0 66 46 111.5t112 45.5q67 0 113.5 -45t46.5 -112q0 -68 -45.5 -114t-114.5 -46q-66 0 -112 46t-46 114z" />
<glyph unicode="&#x458;" horiz-adv-x="530" d="M-94 -223q72 39 112.5 73.5t64 90t23.5 145.5v1001h316v-989q0 -158 -51.5 -263t-140.5 -169.5t-220 -118.5zM80 1477q0 76 51 127t131 51t132.5 -51.5t52.5 -126.5q0 -78 -52.5 -129.5t-132.5 -51.5t-131 51.5t-51 129.5z" />
<glyph unicode="&#x459;" horiz-adv-x="1472" d="M16 203q55 27 81 60.5t39.5 109.5t23.5 239l30 475h746v-339h41q244 0 357.5 -94.5t113.5 -280.5q0 -188 -117 -280.5t-323 -92.5h-387v856h-154l-21 -260q-16 -233 -46.5 -348t-98.5 -176.5t-207 -98.5zM936 209h55q70 0 103.5 39t33.5 131t-32.5 131t-114.5 39h-45 v-340z" />
<glyph unicode="&#x45a;" horiz-adv-x="1509" d="M106 0v1087h316v-382h242v382h315v-382h43q463 -1 463 -353q0 -174 -118 -263t-323 -89h-380v487h-242v-487h-316zM979 207h59q72 0 106 34.5t34 116.5q0 76 -33 111t-117 35h-49v-297z" />
<glyph unicode="&#x45b;" horiz-adv-x="1085" d="M12 1225v184h107v111l315 32v-143h240v-184h-240v-256q57 78 125 115.5t154 37.5q127 0 199.5 -85t72.5 -232v-805h-315v762q0 68 -20.5 95.5t-57.5 27.5q-41 0 -79 -34t-79 -99v-752h-315v1225h-107z" />
<glyph unicode="&#x45c;" horiz-adv-x="1026" d="M106 0v1087h316v-425h90l209 425h295l-252 -503l272 -584h-323l-207 469h-84v-469h-316zM248 1432l408 268l123 -232l-445 -192z" />
<glyph unicode="&#x45d;" horiz-adv-x="1095" d="M106 0v1087h293v-393q0 -215 -43 -391l316 784h317v-1087h-291v389q0 225 45 393l-321 -782h-316zM301 1468l123 232l408 -268l-86 -156z" />
<glyph unicode="&#x45e;" horiz-adv-x="974" d="M-10 1087h323l168 -886l187 886h317l-309 -1089q-117 -424 -570 -453l-34 219q141 20 210.5 72.5t110.5 163.5h-112zM161 1608l170 30q16 -66 53 -94t103 -28q63 0 101 28.5t53 93.5l172 -30q-12 -141 -96.5 -226.5t-229.5 -85.5q-148 0 -230.5 84t-95.5 228z" />
<glyph unicode="&#x45f;" horiz-adv-x="1071" d="M106 0v1087h316v-854h225v854h316v-1087h-297v-338h-213l-35 338h-312z" />
<glyph unicode="&#x460;" horiz-adv-x="1658" d="M86 618q0 254 39 442.5t106 358.5h304q-59 -209 -90 -383t-31 -401q0 -164 14 -257t46 -132t85 -39q111 0 111 149v461h323v-461q0 -80 28 -115.5t85 -35.5q49 0 78.5 37t45 130t15.5 261q0 229 -33.5 404t-99.5 382h315q68 -170 107 -358.5t39 -442.5 q0 -340 -106.5 -496.5t-311.5 -156.5q-131 0 -211 60.5t-115 187.5q-31 -125 -111.5 -186.5t-201.5 -61.5q-219 0 -324.5 153.5t-105.5 499.5z" />
<glyph unicode="&#x461;" horiz-adv-x="1435" d="M63 496q0 319 115 591h285q-45 -162 -68.5 -300t-23.5 -277q0 -172 27.5 -241.5t84.5 -69.5q47 0 69.5 33.5t22.5 125.5v369l285 39v-408q0 -88 23.5 -123.5t68.5 -35.5q55 0 84 66.5t29 246.5q0 135 -24.5 274.5t-67.5 300.5h282q117 -274 117 -591q0 -268 -99 -399.5 t-269 -131.5q-242 0 -287 236q-29 -123 -97.5 -179.5t-187.5 -56.5q-174 0 -271.5 130t-97.5 401z" />
<glyph unicode="&#x462;" horiz-adv-x="1247" d="M0 1065v199h250v155h328v-155h280v-199h-280v-152h122q250 0 385.5 -112.5t135.5 -331.5q0 -233 -138.5 -351t-382.5 -118h-450v1065h-250zM578 238h100q104 0 154.5 54t50.5 173q0 111 -50.5 165t-162.5 54h-92v-446z" />
<glyph unicode="&#x463;" horiz-adv-x="985" d="M12 942v186h111v218l315 32v-250h244l-27 -186h-217v-194h47q244 0 360 -93.5t116 -279.5q0 -188 -118 -281.5t-335 -93.5h-385v942h-111zM438 209h60q71 0 107 39t36 131q0 90 -34 130t-113 40h-56v-340z" />
<glyph unicode="&#x464;" horiz-adv-x="1585" d="M113 0v1419h327v-571h140q31 295 188.5 450.5t394.5 155.5q121 0 217.5 -39t182.5 -117l-156 -180q-113 96 -227 96q-117 0 -191 -91t-84 -281h430v-230h-430q8 -203 82 -302t195 -99q72 0 127 28.5t123 84.5l145 -177q-76 -80 -182.5 -131t-239.5 -51q-244 0 -398.5 163 t-178.5 476h-138v-604h-327z" />
<glyph unicode="&#x465;" horiz-adv-x="1390" d="M106 0v1087h316v-428h129q29 215 158 339t327 124q197 0 340 -133l-131 -170q-49 39 -94 55.5t-94 16.5q-88 0 -138.5 -57.5t-58.5 -186.5h342v-184h-344q8 -143 60.5 -203.5t140.5 -60.5q49 0 91 16t91 53l135 -174q-145 -129 -334 -129q-215 0 -345 125t-150 356h-125 v-446h-316z" />
<glyph unicode="&#x466;" horiz-adv-x="1224" d="M-23 0l447 1419h385l438 -1419h-317l-144 541h-59v-543h-227v543h-66l-141 -541h-316zM494 766h233l-117 446z" />
<glyph unicode="&#x467;" horiz-adv-x="1087" d="M-10 0l381 1087h348l379 -1087h-289l-113 389h-57v-389h-199v389h-53l-111 -389h-286zM444 584h195l-98 338z" />
<glyph unicode="&#x468;" horiz-adv-x="1740" d="M113 -2v1421h327v-653h295l205 653h385l438 -1419h-317l-143 541h-60v-543h-227v543h-66l-141 -541h-315l170 539h-224v-541h-327zM1010 766h233l-117 446z" />
<glyph unicode="&#x469;" horiz-adv-x="1480" d="M106 0v1087h316v-487h229l152 487h350l340 -1087h-272l-109 406h-43v-406h-186v406h-41l-105 -406h-274l127 406h-168v-406h-316zM891 600h168l-86 320z" />
<glyph unicode="&#x46a;" horiz-adv-x="1505" d="M-14 0l315 788h164l-281 431v200h1141v-200l-291 -431h172l314 -788h-328l-191 563h-100v-563h-293v563h-98l-199 -563h-325zM518 1202l238 -411l237 411h-475z" />
<glyph unicode="&#x46b;" horiz-adv-x="1277" d="M-4 0l242 635h151l-205 319v133h897v-133l-204 -319h163l242 -635h-281l-145 436h-82v-436h-268v436h-84l-146 -436h-280zM479 907l156 -270l151 270h-307z" />
<glyph unicode="&#x46c;" horiz-adv-x="1828" d="M113 0v1419h327v-624h434l-237 424v200h1067v-200l-248 -424h158l229 -795h-323l-121 561h-80v-561h-293v561h-82l-121 -561h-325l161 559h-219v-559h-327zM958 1204l216 -409l210 409h-426z" />
<glyph unicode="&#x46d;" horiz-adv-x="1546" d="M106 0v1087h316v-454h328l-187 321v133h873v-133l-187 -321h158l143 -633h-268l-74 434h-67v-434h-260v434h-68l-74 -434h-266l96 434h-147v-434h-316zM856 907l145 -274l144 274h-289z" />
<glyph unicode="&#x46e;" horiz-adv-x="976" d="M41 1182v237h827v-231l-338 -393q199 -2 303.5 -109.5t104.5 -302.5q0 -201 -102.5 -302t-280.5 -142q-94 -23 -137 -38.5t-58.5 -31.5t-15.5 -43q0 -31 21.5 -55.5t64.5 -49.5l-72 -176q-143 49 -223 128t-80 188q0 115 75 178t235 98q135 31 185 84t50 166 q0 115 -51 166t-162 51h-192v187l329 391h-483zM98 1802l111 121l248 -170l248 170l108 -121l-262 -266h-191z" />
<glyph unicode="&#x46f;" horiz-adv-x="952" d="M39 864v223h809v-204l-318 -310h43q156 0 247 -77.5t91 -214.5q0 -158 -97 -239t-267 -116q-88 -18 -132 -32.5t-60.5 -31t-16.5 -42.5q0 -49 88 -99l-72 -176q-141 47 -222 126t-81 184q0 111 76 174t235 96q129 27 178.5 59.5t49.5 100.5q0 53 -35 78.5t-113 25.5h-235 v172l295 303h-463zM86 1536l110 123l248 -189l248 189l109 -123l-263 -283h-190z" />
<glyph unicode="&#x470;" horiz-adv-x="1353" d="M31 860v559h311v-565q0 -117 43 -175t143 -77v817h297v-817q98 20 142.5 79.5t44.5 172.5v565h311v-557q0 -209 -122 -332.5t-361 -154.5v-375h-328v373q-242 33 -361.5 155.5t-119.5 331.5z" />
<glyph unicode="&#x471;" horiz-adv-x="1456" d="M90 395v692h307v-675q0 -98 42 -152.5t143 -69.5v897h299v-892q100 18 147 96t47 225q0 233 -47 571h301q53 -287 53 -579q0 -250 -132 -383t-369 -156v-389l-299 -33v420q-244 18 -368 133t-124 295z" />
<glyph unicode="&#x472;" horiz-adv-x="1290" d="M61 711q0 358 153 550.5t431 192.5q281 0 432.5 -189.5t151.5 -553.5q0 -360 -152.5 -553t-431.5 -193t-431.5 190.5t-152.5 555.5zM393 625q8 -225 70.5 -322.5t181.5 -97.5q121 0 182.5 97t69.5 323h-504zM393 813h504q-12 213 -73.5 307t-178.5 94q-115 0 -177 -94 t-75 -307z" />
<glyph unicode="&#x473;" horiz-adv-x="1093" d="M59 545q0 272 130 424.5t358 152.5q229 0 359 -148.5t130 -430.5q0 -270 -131 -424t-358 -154q-229 0 -358.5 149.5t-129.5 430.5zM373 463q8 -145 51 -207.5t123 -62.5t123 63t51 207h-348zM375 641h344q-8 137 -50 195.5t-122 58.5q-78 0 -121 -60.5t-51 -193.5z" />
<glyph unicode="&#x474;" horiz-adv-x="1204" d="M-23 1419h336l238 -1161l162 868q29 174 110.5 251t216.5 77q129 0 234 -76l-86 -184q-47 29 -92 29q-39 0 -60.5 -23.5t-36.5 -85.5l-247 -1114h-414z" />
<glyph unicode="&#x475;" horiz-adv-x="989" d="M-10 1087h329l168 -845l136 680q27 143 90 208.5t184 65.5q80 0 162 -31l-53 -204q-25 10 -52 10t-44 -16.5t-25 -53.5l-213 -901h-373z" />
<glyph unicode="&#x476;" horiz-adv-x="1204" d="M-23 1419h336l238 -1161l162 868q29 174 110.5 251t216.5 77q129 0 234 -76l-86 -184q-47 29 -92 29q-39 0 -60.5 -23.5t-36.5 -85.5l-247 -1114h-414zM94 1909l203 104l182 -399l-155 -74zM424 1915l205 98l166 -399l-158 -66z" />
<glyph unicode="&#x477;" horiz-adv-x="989" d="M-10 1087h329l168 -845l136 680q27 143 90 208.5t184 65.5q80 0 162 -31l-53 -204q-25 10 -52 10t-44 -16.5t-25 -53.5l-213 -901h-373zM55 1651l203 104l182 -399l-155 -74zM385 1657l205 98l166 -399l-158 -66z" />
<glyph unicode="&#x478;" horiz-adv-x="2265" d="M61 711q0 358 153 550.5t431 192.5q281 0 432.5 -189.5t151.5 -553.5q0 -360 -152.5 -553t-431.5 -193t-431.5 190.5t-152.5 555.5zM403 711q0 -274 59.5 -390t182.5 -116q125 0 183.5 115.5t58.5 390.5q0 270 -58.5 386.5t-183.5 116.5t-183.5 -116.5t-58.5 -386.5z M1280 1087h323l168 -886l187 886h317l-309 -1089q-117 -424 -570 -453l-34 219q141 20 210.5 72.5t110.5 163.5h-112z" />
<glyph unicode="&#x479;" horiz-adv-x="2052" d="M59 545q0 272 130 424.5t358 152.5q229 0 359 -148.5t130 -430.5q0 -270 -131 -424t-358 -154q-229 0 -358.5 149.5t-129.5 430.5zM385 545q0 -188 39 -268t123 -80t124 80.5t40 265.5q0 188 -39 267t-125 79q-84 0 -123 -80t-39 -264zM1067 1087h323l168 -886l187 886 h317l-309 -1089q-117 -424 -570 -453l-34 219q141 20 210.5 72.5t110.5 163.5h-112z" />
<glyph unicode="&#x48a;" horiz-adv-x="1304" d="M113 0v1419h311v-549q0 -166 -10.5 -288.5t-28.5 -257.5l344 1095h385v-1169h215l-174 -588h-223l72 338h-203v541q0 276 41 555l-340 -1096h-389zM289 1849l170 31q16 -66 53 -94.5t102 -28.5q63 0 101.5 29t52.5 94l172 -31q-12 -141 -96 -226t-230 -85q-147 0 -230 84 t-95 227z" />
<glyph unicode="&#x48b;" horiz-adv-x="1167" d="M106 0v1087h293v-393q0 -215 -43 -391l316 784h317v-854h211l-170 -571h-213l72 338h-191v389q0 225 45 393l-321 -782h-316zM223 1608l170 30q16 -66 53 -94t103 -28q63 0 101 28.5t52 93.5l172 -30q-12 -141 -96 -226.5t-229 -85.5q-148 0 -230.5 84t-95.5 228z" />
<glyph unicode="&#x48c;" horiz-adv-x="1134" d="M29 1065v197h108v157h328v-157h231v-197h-231v-152h123q252 0 386 -111.5t134 -332.5q0 -233 -138.5 -351t-381.5 -118h-451v1065h-108zM465 238h102q101 0 151 55t50 174q0 111 -50 165t-161 54h-92v-448z" />
<glyph unicode="&#x48d;" horiz-adv-x="995" d="M23 809v186h108v92h315v-92h244l-24 -186h-220v-102h50q475 -1 475 -353q0 -176 -119 -265t-334 -89h-387v809h-108zM446 209h62q72 0 107.5 35t35.5 114q0 78 -34.5 114t-112.5 36h-58v-299z" />
<glyph unicode="&#x48e;" horiz-adv-x="1114" d="M113 0v1419h405q272 0 418.5 -116.5t146.5 -344.5q0 -153 -62.5 -259.5t-174.5 -161.5l98 -193h-143l-78 150q-80 -18 -174 -19h-117v-475h-319zM432 700h90q57 0 92 9l-141 272h143l107 -205q37 59 37 180q0 119 -56.5 174.5t-181.5 55.5h-90v-486z" />
<glyph unicode="&#x48f;" horiz-adv-x="1112" d="M106 -453v1540h281l14 -118q111 154 283 153q182 0 273.5 -149.5t91.5 -425.5q0 -187 -57.5 -326t-157.5 -205l104 -204h-139l-82 159q-27 -6 -60 -6q-141 0 -235 111v-496zM422 262q59 -90 145 -90q14 0 43 4l-141 273h141l90 -177q29 86 29 271q0 201 -37 274.5 t-114 73.5q-88 0 -156 -121v-508z" />
<glyph unicode="&#x490;" horiz-adv-x="946" d="M113 0v1419h534v297h301v-297l-33 -258h-475v-1161h-327z" />
<glyph unicode="&#x491;" horiz-adv-x="804" d="M106 0v1087h429v312h282v-312l-37 -239h-358v-848h-316z" />
<glyph unicode="&#x492;" horiz-adv-x="964" d="M-8 672v196h137v551h836l-33 -258h-475v-293h256v-196h-256v-672h-328v672h-137z" />
<glyph unicode="&#x493;" horiz-adv-x="825" d="M18 449v180h107v458h711l-37 -239h-359v-219h201v-180h-201v-449h-315v449h-107z" />
<glyph unicode="&#x494;" horiz-adv-x="1169" d="M113 0v1419h819l-33 -248h-459v-356q113 113 285 113q188 0 293.5 -122t105.5 -339v-551q0 -182 -104.5 -275.5t-280.5 -93.5q-160 0 -272 86l108 189q37 -20 64 -28.5t61 -8.5q96 0 97 113v569q0 113 -40 166t-124 53q-115 0 -193 -88v-598h-327z" />
<glyph unicode="&#x495;" horiz-adv-x="1028" d="M106 0v1087h711l-37 -225h-358v-276q57 68 124.5 101.5t153.5 33.5q127 0 200 -87t73 -245v-479q0 -176 -102.5 -269.5t-272.5 -93.5q-166 0 -276 86l108 181q37 -20 63.5 -28.5t63.5 -8.5q47 0 73.5 27.5t26.5 84.5v461q0 74 -19.5 103.5t-57.5 29.5q-41 0 -78 -30.5 t-80 -87.5v-365h-316z" />
<glyph unicode="&#x496;" horiz-adv-x="1693" d="M-14 0l338 774l-306 645h316l258 -563h102v563h299v-563h101l262 563h313l-307 -645l229 -524h123v-588h-223l-35 338h-102l-254 623h-107v-623h-299v623h-110l-258 -623h-340z" />
<glyph unicode="&#x497;" horiz-adv-x="1404" d="M-4 0l242 582l-222 505h285l176 -428h84v428h275v-428h84l178 428h282l-219 -505l144 -349h112v-571h-213l-35 338h-75l-179 467h-79v-467h-275v467h-80l-178 -467h-307z" />
<glyph unicode="&#x498;" horiz-adv-x="1005" d="M-8 164l170 168q63 -63 123.5 -93t132.5 -30q94 0 148.5 54t54.5 157q0 100 -54.5 155.5t-163.5 55.5h-137l37 235h107q88 0 134 47.5t46 133.5q0 76 -38 123t-120 47q-121 0 -252 -113l-149 164q182 186 444 186q137 0 238.5 -48t157 -133t55.5 -192q0 -125 -74 -210 t-221 -117q160 -20 247 -108.5t87 -242.5q0 -167 -105.5 -281t-284.5 -145q162 -96 162 -249q0 -117 -77.5 -184.5t-202.5 -67.5q-117 0 -205 51l63 154q49 -27 109 -27q51 0 76.5 27.5t25.5 76.5q0 121 -120 207q-135 8 -236.5 57.5t-177.5 141.5z" />
<glyph unicode="&#x499;" horiz-adv-x="925" d="M2 98l145 170q66 -43 119 -60.5t119 -17.5q156 0 156 140q0 68 -42 98.5t-126 30.5h-140l17 203h100q150 0 150 129q0 57 -34 84.5t-91 27.5q-55 0 -102.5 -17.5t-98.5 -51.5l-143 161q164 127 399 127q168 0 278.5 -82t110.5 -219q0 -92 -56 -151.5t-173 -89.5 q139 -20 207.5 -84t68.5 -183q0 -143 -91 -229t-249 -111q158 -94 158 -245q0 -117 -78 -184.5t-203 -67.5q-117 0 -204 51l63 154q49 -27 109 -27q51 0 76.5 27.5t25.5 76.5q0 119 -121 209q-205 12 -350 131z" />
<glyph unicode="&#x49a;" horiz-adv-x="1171" d="M113 0v1419h327v-559h133l263 559h313l-307 -645l231 -524h125v-588h-223l-35 338h-104l-271 621h-125v-621h-327z" />
<glyph unicode="&#x49b;" horiz-adv-x="1032" d="M106 0v1087h316v-425h90l209 425h295l-252 -503l164 -351h121v-571h-213l-35 338h-88l-207 469h-84v-469h-316z" />
<glyph unicode="&#x49c;" horiz-adv-x="1193" d="M113 0v1419h313v-571h59v326h119v-326h27l217 571h313l-274 -645l307 -774h-340l-221 631h-29v-330h-119v330h-59v-631h-313z" />
<glyph unicode="&#x49d;" horiz-adv-x="1032" d="M106 0v1087h300v-438h47v238h84v-238h22l170 438h289l-213 -503l231 -584h-315l-162 481h-22v-241h-84v241h-47v-481h-300z" />
<glyph unicode="&#x49e;" horiz-adv-x="1193" d="M29 1063v201h106v155h328v-155h143v-201h-143v-203h133l262 559h313l-307 -645l342 -774h-348l-270 621h-125v-621h-328v1063h-106z" />
<glyph unicode="&#x49f;" horiz-adv-x="1038" d="M12 1151v186h109v183l315 30v-213h238v-186h-238v-489h90l209 425h293l-252 -503l273 -584h-324l-207 469h-82v-469h-315v1151h-109z" />
<glyph unicode="&#x4a0;" horiz-adv-x="1398" d="M14 1171v248h654v-559h133l262 559h313l-307 -645l342 -774h-348l-270 621h-125v-621h-328v1174l-2 -3h-324z" />
<glyph unicode="&#x4a1;" horiz-adv-x="1187" d="M4 862v225h582v-425h90l209 425h295l-252 -503l272 -584h-323l-207 469h-84v-469h-316v862h-266z" />
<glyph unicode="&#x4a2;" horiz-adv-x="1286" d="M113 0v1419h327v-553h355v553h327v-1169h148v-588h-223l-35 338h-217v610h-355v-610h-327z" />
<glyph unicode="&#x4a3;" horiz-adv-x="1124" d="M106 0v1087h316v-419h244v419h315v-854h147v-571h-213l-34 338h-215v436h-244v-436h-316z" />
<glyph unicode="&#x4a4;" horiz-adv-x="1460" d="M113 0v1419h327v-553h355v551l-2 2h669l-35 -250h-305v-1169h-327v610h-355v-610h-327z" />
<glyph unicode="&#x4a5;" horiz-adv-x="1261" d="M106 0v1087h316v-419h244v419h610l-41 -233h-254v-854h-315v436h-244v-436h-316z" />
<glyph unicode="&#x4a6;" horiz-adv-x="1841" d="M113 0v1419h1007v-563q111 104 277 105q188 0 293.5 -122t105.5 -339v-584q0 -182 -104.5 -275.5t-280.5 -93.5q-160 0 -272 86l108 189q37 -20 63.5 -28.5t61.5 -8.5q96 0 96 113v602q0 111 -39.5 164t-123.5 53q-111 0 -185 -80v-637h-329v1167h-351v-1167h-327z" />
<glyph unicode="&#x4a7;" horiz-adv-x="1570" d="M106 0v1087h869v-489q55 61 120.5 92t149.5 31q127 0 200 -87t73 -245v-479q0 -176 -102.5 -269.5t-272.5 -93.5q-166 0 -277 86l109 181q37 -20 63.5 -28.5t63.5 -8.5q47 0 73.5 27.5t26.5 84.5v461q0 74 -19.5 103.5t-58.5 29.5q-70 0 -149 -106v-377h-316v854h-237 v-854h-316z" />
<glyph unicode="&#x4a8;" horiz-adv-x="1341" d="M61 713q0 238 76 404.5t208 251.5t304 85q123 0 219.5 -39t182.5 -117l-156 -182q-55 47 -109.5 70.5t-115.5 23.5q-266 0 -267 -497q0 -250 72 -372t203 -122h10q-90 170 -90 328q0 166 93 263t247 97q147 0 245.5 -92t98.5 -262q0 -143 -69.5 -277.5t-198.5 -216.5 q20 -31 137 -194l29 -39l-156 -109q-23 31 -40 54.5t-30 40.5l-123 172q-76 -18 -169 -19q-182 0 -317.5 86t-209.5 254t-74 408zM836 545q0 -136 59 -273q133 86 133 291q0 141 -92 142q-100 0 -100 -160z" />
<glyph unicode="&#x4a9;" horiz-adv-x="1173" d="M59 535q0 178 60.5 311t172 204.5t261.5 71.5q88 0 155.5 -20.5t127.5 -65.5l-109 -200q-66 45 -149 45q-94 0 -141.5 -78t-47.5 -266q0 -186 48 -262t138 -76h17q-70 143 -70 256q0 133 80 216t215 83q133 0 215 -79t82 -222q0 -119 -55 -224.5t-160 -173.5 q53 -82 162 -229l-148 -109q-137 184 -190 265q-78 -16 -162 -17q-236 0 -369 148.5t-133 421.5zM739 461q1 -92 52 -209q100 68 100 219q0 53 -19.5 81t-54.5 28q-37 0 -57.5 -31t-20.5 -88z" />
<glyph unicode="&#x4aa;" d="M61 713q0 238 76 404.5t208 251.5t304 85q123 0 219.5 -39t182.5 -117l-156 -182q-55 47 -109.5 70.5t-115.5 23.5q-266 0 -267 -497q0 -494 269 -494q70 0 124 27.5t122 81.5l147 -181q-61 -65 -144 -112t-182 -64q154 -94 154 -243q0 -117 -78 -184.5t-203 -67.5 q-117 0 -204 51l63 154q49 -27 109 -27q51 0 76.5 27.5t25.5 76.5q0 123 -129 213q-229 35 -360.5 223.5t-131.5 518.5z" />
<glyph unicode="&#x4ab;" horiz-adv-x="892" d="M59 535q0 178 60.5 311t172 204.5t261.5 71.5q102 0 184 -32.5t154 -100.5l-131 -180q-47 37 -90 54.5t-92 17.5q-94 0 -141.5 -78t-47.5 -266q0 -180 48 -252t138 -72q47 0 86 15.5t93 52.5l137 -187q-115 -104 -262 -125q150 -94 149 -241q0 -117 -77.5 -184.5 t-202.5 -67.5q-117 0 -205 51l63 154q49 -27 109 -27q51 0 76.5 27.5t25.5 76.5q0 127 -137 219q-176 39 -273.5 183.5t-97.5 374.5z" />
<glyph unicode="&#x4ac;" horiz-adv-x="1003" d="M14 1169v250h992l-35 -250h-305v-919h149v-588h-223l-35 338h-219v1169h-324z" />
<glyph unicode="&#x4ad;" horiz-adv-x="880" d="M4 854v233h889l-39 -233h-256v-621h147v-571h-213l-34 338h-215v854h-279z" />
<glyph unicode="&#x4ae;" horiz-adv-x="1110" d="M-18 1419h350l227 -631l232 631h337l-409 -887v-532h-328v530z" />
<glyph unicode="&#x4af;" horiz-adv-x="962" d="M-10 1087h332l165 -808l175 808h313l-340 -1075v-432l-307 -33v465z" />
<glyph unicode="&#x4b0;" horiz-adv-x="1110" d="M-18 1419h350l227 -631l232 631h337l-358 -776h137v-186h-188v-457h-328v457h-188v186h137z" />
<glyph unicode="&#x4b1;" horiz-adv-x="962" d="M-10 1087h332l165 -808l175 808h313l-291 -919h127v-178h-176v-410l-307 -33v443h-174v178h125z" />
<glyph unicode="&#x4b2;" horiz-adv-x="1085" d="M-12 0l354 754l-328 665h348l177 -461l188 461h340l-336 -653l248 -516h133v-588h-223l-35 338h-106l-213 547l-205 -547h-342z" />
<glyph unicode="&#x4b3;" horiz-adv-x="983" d="M-20 0l311 571l-283 516h338l133 -352l127 352h326l-264 -505l188 -349h143v-571h-213l-34 338h-113l-168 412l-160 -412h-331z" />
<glyph unicode="&#x4b4;" horiz-adv-x="1513" d="M14 1171v248h908l-31 -248h-225v-915h354v1163h328v-1169h147v-588h-223l-35 338h-899v1171h-324z" />
<glyph unicode="&#x4b5;" horiz-adv-x="1323" d="M4 862v225h774l-26 -225h-154v-629h266v854h316v-854h147v-571h-213l-35 338h-796v862h-279z" />
<glyph unicode="&#x4b6;" horiz-adv-x="1206" d="M37 862v557h321v-538q0 -119 41 -169t127 -50q113 0 187 77v680h327v-1169h148v-588h-223l-35 338h-217v526q-63 -55 -130 -81.5t-153 -26.5q-180 0 -286.5 117.5t-106.5 326.5z" />
<glyph unicode="&#x4b7;" horiz-adv-x="1060" d="M51 621v466h316v-432q0 -61 22.5 -88.5t67.5 -27.5q39 0 77.5 19.5t67.5 49.5v479h316v-854h147v-571h-213l-35 338h-215v410q-115 -104 -266 -105q-139 0 -212 83t-73 233z" />
<glyph unicode="&#x4b8;" horiz-adv-x="1153" d="M37 862v557h321v-538q0 -104 32 -154.5t95 -60.5v458h119v-452q61 16 109 67v680h327v-1419h-327v526q-55 -49 -109 -73v-201h-119v168q-18 -2 -55 -2q-180 0 -286.5 117.5t-106.5 326.5z" />
<glyph unicode="&#x4b9;" horiz-adv-x="1024" d="M51 621v466h301v-438q0 -57 18.5 -83.5t61.5 -30.5v278h92v-264q53 23 88 65v473h306v-1087h-306v418q-45 -41 -88 -66v-178h-92v143q-45 -12 -98 -12q-137 0 -210 83t-73 233z" />
<glyph unicode="&#x4ba;" horiz-adv-x="1169" d="M113 0v1419h327v-571q113 113 285 113q188 0 293.5 -122t105.5 -339v-500h-327v500q0 111 -40 164t-124 53q-115 0 -193 -88v-629h-327z" />
<glyph unicode="&#x4bb;" horiz-adv-x="1062" d="M106 0v1520l316 30v-694q109 143 278 143q127 0 200 -87t73 -242v-670h-316v627q0 76 -19.5 105.5t-57.5 29.5q-41 0 -79 -34t-79 -97v-631h-316z" />
<glyph unicode="&#x4bc;" horiz-adv-x="1470" d="M-14 885q0 72 22.5 131t63.5 123l200 -88q-35 -84 -34 -140q0 -86 84 -86h24q25 313 167 471t380 158q272 0 404.5 -186.5t132.5 -538.5q-1 -67 -11 -135h-747q6 -201 70.5 -294t189.5 -93q84 0 145.5 27.5t130.5 82.5l150 -170q-96 -92 -206 -137t-249 -45 q-248 0 -392 158t-165 469h-8q-166 0 -259 79t-93 214zM670 819h444q-2 213 -57.5 304t-159.5 91q-106 0 -162.5 -90t-64.5 -305z" />
<glyph unicode="&#x4bd;" horiz-adv-x="1282" d="M-8 721q0 66 19.5 119t49.5 104l177 -74q-10 -29 -18.5 -61.5t-8.5 -63.5q0 -92 84 -92h14q25 213 145.5 341t317.5 128q215 0 338 -144t123 -413q0 -65 -6 -114h-606q12 -143 63 -198.5t145 -55.5q61 0 116.5 22.5t121.5 69.5l129 -174q-168 -150 -391 -150t-349 127 t-149 354h-4q-152 0 -231.5 74t-79.5 201zM618 641h306v14q0 129 -34 193.5t-114 64.5q-72 0 -110.5 -60t-47.5 -212z" />
<glyph unicode="&#x4be;" horiz-adv-x="1470" d="M-14 885q0 72 22.5 131t63.5 123l200 -88q-35 -84 -34 -140q0 -86 84 -86h24q25 313 167 471t380 158q272 0 404.5 -186.5t132.5 -538.5q-1 -67 -11 -135h-747q6 -201 70.5 -294t189.5 -93q84 0 145.5 27.5t130.5 82.5l150 -170q-115 -113 -254 -153 q-115 -51 -157 -101.5t-42 -103.5q0 -94 96 -94q39 0 111 14l-20 -194q-61 -16 -129 -17q-125 0 -204 63.5t-79 172.5q0 141 123 237q-203 31 -320.5 187.5t-136.5 433.5h-8q-166 0 -259 79t-93 214zM670 819h444q-2 213 -57.5 304t-159.5 91q-106 0 -162.5 -90t-64.5 -305z " />
<glyph unicode="&#x4bf;" horiz-adv-x="1282" d="M-8 721q0 66 19.5 119t49.5 104l177 -74q-10 -29 -18.5 -61.5t-8.5 -63.5q0 -92 84 -92h14q25 213 145.5 341t317.5 128q215 0 338 -144t123 -413q0 -65 -6 -114h-606q12 -143 63 -198.5t145 -55.5q61 0 116.5 22.5t121.5 69.5l129 -174q-90 -80 -195 -117 q-96 -47 -133 -94t-37 -97q0 -94 97 -94q39 0 110 15l-20 -195q-61 -16 -129 -16q-125 0 -204 63.5t-79 171.5q0 129 101 219q-178 27 -279.5 151t-120.5 324h-4q-152 0 -231.5 74t-79.5 201zM618 641h306v14q0 129 -34 193.5t-114 64.5q-72 0 -110.5 -60t-47.5 -212z" />
<glyph unicode="&#x4c0;" horiz-adv-x="550" d="M113 0v1419h327v-1419h-327z" />
<glyph unicode="&#x4c1;" horiz-adv-x="1685" d="M-14 0l338 774l-306 645h316l258 -563h102v563h299v-563h101l262 563h313l-307 -645l340 -774h-348l-254 623h-107v-623h-299v623h-110l-258 -623h-340zM518 1849l170 31q16 -66 53 -94.5t103 -28.5q63 0 101 29t53 94l172 -31q-12 -141 -96.5 -226t-229.5 -85 q-148 0 -230.5 84t-95.5 227z" />
<glyph unicode="&#x4c2;" horiz-adv-x="1396" d="M-4 0l242 582l-222 505h285l176 -428h84v428h275v-428h84l178 428h282l-219 -505l240 -582h-307l-179 467h-79v-467h-275v467h-80l-178 -467h-307zM372 1608l170 30q16 -66 53 -94t103 -28q63 0 101 28.5t53 93.5l172 -30q-12 -141 -96.5 -226.5t-229.5 -85.5 q-148 0 -230.5 84t-95.5 228z" />
<glyph unicode="&#x4c3;" horiz-adv-x="1179" d="M113 0v1419h327v-577h119l262 577h316l-291 -592q137 -32 204.5 -137.5t67.5 -288.5v-401h-2v-84q0 -182 -104.5 -275.5t-280.5 -93.5q-160 0 -272 86l108 189q37 -20 63.5 -28.5t61.5 -8.5q96 0 96 113v104h3v399q0 104 -42 152.5t-135 48.5h-174v-602h-327z" />
<glyph unicode="&#x4c4;" horiz-adv-x="1050" d="M106 0v1087h316v-446h76l211 446h292l-233 -456q219 -49 219 -309v-412q0 -176 -103.5 -269.5t-271.5 -93.5q-166 0 -276 86l108 181q37 -20 64 -28.5t63 -8.5q47 0 74 27.5t27 84.5v433q0 70 -27 98.5t-88 28.5h-135v-449h-316z" />
<glyph unicode="&#x4c5;" horiz-adv-x="1290" d="M0 197q61 29 93 74.5t51.5 138t39.5 286.5l76 723h840v-1169h215l-174 -588h-223l71 338h-217v1169h-231l-52 -491q-27 -252 -69.5 -389t-120.5 -211t-221 -113z" />
<glyph unicode="&#x4c6;" horiz-adv-x="1138" d="M16 203q55 27 81 60.5t39.5 109.5t23.5 239l30 475h758v-854h209l-170 -571h-213l72 338h-213v856h-166l-21 -260q-16 -233 -46.5 -348t-98.5 -176.5t-207 -98.5z" />
<glyph unicode="&#x4c7;" horiz-adv-x="1220" d="M113 0v1419h327v-553h355v553h327v-1419h-2v-84q0 -182 -104.5 -275.5t-280.5 -93.5q-160 0 -272 86l108 189q37 -20 64 -28.5t61 -8.5q96 0 97 113v104h2v608h-355v-610h-327z" />
<glyph unicode="&#x4c8;" horiz-adv-x="1087" d="M106 0v1087h316v-419h244v419h315v-1177q0 -176 -102.5 -269.5t-272.5 -93.5q-166 0 -276 86l108 181q37 -20 63.5 -28.5t63.5 -8.5q47 0 74 27.5t27 84.5v547h-244v-436h-316z" />
<glyph unicode="&#x4c9;" horiz-adv-x="1310" d="M113 0v1419h327v-553h355v553h327v-1169h215l-174 -588h-223l72 338h-217v610h-355v-610h-327z" />
<glyph unicode="&#x4ca;" horiz-adv-x="1171" d="M106 0v1087h316v-419h244v419h315v-854h211l-170 -571h-213l72 338h-215v436h-244v-436h-316z" />
<glyph unicode="&#x4cb;" horiz-adv-x="1153" d="M37 877v542h321v-524q0 -119 41 -170t127 -51q113 0 187 78v667h327v-1419h-200l-35 -338h-223v576h131v303q-61 -57 -128 -84t-155 -27q-180 0 -286.5 119t-106.5 328z" />
<glyph unicode="&#x4cc;" horiz-adv-x="1024" d="M51 659v428h316v-393q0 -61 22.5 -87.5t67.5 -26.5q39 0 77.5 19t67.5 50v438h316v-1087h-209l-35 -338h-213v559h141v228q-115 -104 -268 -105q-137 0 -210 83t-73 232z" />
<glyph unicode="&#x4cd;" horiz-adv-x="1581" d="M61 0l95 1419h409l178 -966l164 966h412l78 -1169h233l-174 -588h-223l72 338h-205l-19 561q-8 246 -8 363q0 143 4 211l-186 -985h-307l-197 985q8 -156 8 -330q0 -78 -4 -250l-18 -555h-312z" />
<glyph unicode="&#x4ce;" horiz-adv-x="1396" d="M51 0l82 1087h369l125 -706l125 706h370l66 -854h229l-170 -571h-213l72 338h-195l-16 397q-2 47 -2 138q0 141 8 278l-145 -702h-258l-146 702q10 -170 10 -285q0 -86 -2 -131l-14 -397h-295z" />
<glyph unicode="&#x4cf;" horiz-adv-x="559" d="M96 260v1260l316 32v-1278q0 -59 49 -59q20 0 45 8l59 -219q-82 -39 -182 -39q-135 0 -211 78t-76 217z" />
<glyph unicode="&#x4d0;" horiz-adv-x="1112" d="M-23 0l383 1419h394l381 -1419h-338l-64 309h-360l-64 -309h-332zM231 1849l170 31q16 -66 53 -94.5t103 -28.5q63 0 101 29t53 94l172 -31q-12 -141 -96.5 -226t-229.5 -85q-148 0 -230.5 84t-95.5 227zM422 545h262l-131 635z" />
<glyph unicode="&#x4d1;" horiz-adv-x="1017" d="M45 305q0 178 120 272.5t347 94.5h86v51q0 96 -35 134t-123 38q-100 0 -256 -55l-71 202q90 39 192.5 59.5t190.5 20.5q211 0 311 -94t100 -287v-440q0 -55 14.5 -81.5t49.5 -41.5l-66 -207q-94 8 -153.5 43t-92.5 109q-100 -158 -292 -158q-147 0 -234.5 93.5 t-87.5 246.5zM178 1608l170 30q16 -66 53 -94t103 -28q63 0 101 28.5t53 93.5l172 -30q-12 -141 -96.5 -226.5t-229.5 -85.5q-148 0 -230.5 84t-95.5 228zM354 332q0 -70 28 -106t79 -36q43 0 78.5 27t58.5 76v203h-57q-96 0 -141.5 -40t-45.5 -124z" />
<glyph unicode="&#x4d2;" horiz-adv-x="1112" d="M-23 0l383 1419h394l381 -1419h-338l-64 309h-360l-64 -309h-332zM184 1733q0 66 46 111.5t112 45.5q67 0 112 -45t45 -112q0 -68 -45 -114t-112 -46q-66 0 -112 46t-46 114zM422 545h262l-131 635zM618 1733q0 66 46 111.5t112 45.5q67 0 113.5 -45t46.5 -112 q0 -68 -45.5 -114t-114.5 -46q-66 0 -112 46t-46 114z" />
<glyph unicode="&#x4d3;" horiz-adv-x="1017" d="M45 305q0 178 120 272.5t347 94.5h86v51q0 96 -35 134t-123 38q-100 0 -256 -55l-71 202q90 39 192.5 59.5t190.5 20.5q211 0 311 -94t100 -287v-440q0 -55 14.5 -81.5t49.5 -41.5l-66 -207q-94 8 -153.5 43t-92.5 109q-100 -158 -292 -158q-147 0 -234.5 93.5 t-87.5 246.5zM127 1475q0 66 46 111.5t112 45.5q67 0 112 -45t45 -112q0 -68 -45 -114t-112 -46q-66 0 -112 46t-46 114zM354 332q0 -70 28 -106t79 -36q43 0 78.5 27t58.5 76v203h-57q-96 0 -141.5 -40t-45.5 -124zM561 1475q0 66 46 111.5t112 45.5q67 0 113.5 -45 t46.5 -112q0 -68 -45.5 -114t-114.5 -46q-66 0 -112 46t-46 114z" />
<glyph unicode="&#x4d4;" horiz-adv-x="1568" d="M-45 0l502 1419h995l-35 -233h-485l59 -352h443v-232h-404l62 -364h428v-238h-703l-43 309h-379l-90 -309h-350zM465 547h274l-90 633z" />
<glyph unicode="&#x4d5;" horiz-adv-x="1589" d="M45 305q0 174 123 267.5t356 93.5h86v53q0 98 -34.5 136t-122.5 38q-100 0 -256 -55l-70 204q193 80 375 80q111 0 182.5 -34.5t116.5 -102.5q117 137 305 137q199 0 316.5 -145.5t117.5 -411.5q0 -65 -6 -114h-604q12 -141 65.5 -197.5t149.5 -56.5q55 0 109.5 22.5 t119.5 69.5l129 -172q-166 -152 -387 -152q-131 0 -230.5 48t-162.5 134q-127 -182 -344 -182q-154 0 -244 94.5t-90 245.5zM371 326q0 -135 104 -136q92 1 166 134q-23 78 -25 161v2h-61q-94 0 -139 -38.5t-45 -122.5zM928 641h307v14q0 256 -150 256q-72 0 -110.5 -61.5 t-46.5 -208.5z" />
<glyph unicode="&#x4d6;" horiz-adv-x="970" d="M113 0v1419h802l-34 -233h-441v-350h385v-230h-385v-368h471v-238h-798zM190 1849l170 31q16 -66 53 -94.5t103 -28.5q63 0 101 29t53 94l172 -31q-12 -141 -96.5 -226t-229.5 -85q-148 0 -230.5 84t-95.5 227z" />
<glyph unicode="&#x4d7;" horiz-adv-x="1038" d="M59 539q0 262 123 422.5t346 160.5q215 0 338 -144t123 -413q0 -65 -6 -114h-606q12 -143 63.5 -198.5t145.5 -55.5q61 0 116.5 22.5t120.5 69.5l129 -174q-168 -150 -391 -150q-246 0 -374 152.5t-128 421.5zM207 1608l170 30q16 -66 53 -94t103 -28q63 0 101 28.5 t53 93.5l172 -30q-12 -141 -96.5 -226.5t-229.5 -85.5q-148 0 -230.5 84t-95.5 228zM375 641h305v14q0 129 -34 193.5t-114 64.5q-72 0 -110.5 -60t-46.5 -212z" />
<glyph unicode="&#x4d8;" horiz-adv-x="1191" d="M41 692q0 33 10 135h748q-6 209 -69.5 298t-186.5 89q-84 0 -150.5 -30.5t-134.5 -83.5l-145 174q98 92 209.5 136t250.5 44q271 0 413 -180t142 -553q0 -381 -144 -568.5t-404 -187.5q-539 0 -539 727zM356 600q0 -215 57.5 -305t164.5 -90q106 0 159.5 88t61.5 307 h-443z" />
<glyph unicode="&#x4d9;" horiz-adv-x="1042" d="M49 522q0 66 6 115h627q-6 139 -53 199.5t-137 60.5q-68 0 -126.5 -19.5t-123.5 -66.5l-127 172q162 139 389 139q241 0 360 -151.5t119 -425.5q0 -266 -123 -423t-350 -157q-215 0 -338 142.5t-123 414.5zM342 430q2 -242 170 -242q82 0 123 56.5t49 201.5h-342v-16z " />
<glyph unicode="&#x4da;" horiz-adv-x="1191" d="M41 692q0 33 10 135h748q-6 209 -69.5 298t-186.5 89q-84 0 -150.5 -30.5t-134.5 -83.5l-145 174q98 92 209.5 136t250.5 44q271 0 413 -180t142 -553q0 -381 -144 -568.5t-404 -187.5q-539 0 -539 727zM201 1733q0 66 46 111.5t112 45.5q67 0 112 -45t45 -112 q0 -68 -45 -114t-112 -46q-66 0 -112 46t-46 114zM356 600q0 -215 57.5 -305t164.5 -90q106 0 159.5 88t61.5 307h-443zM635 1733q0 66 46 111.5t112 45.5q67 0 113.5 -45t46.5 -112q0 -68 -45.5 -114t-114.5 -46q-66 0 -112 46t-46 114z" />
<glyph unicode="&#x4db;" horiz-adv-x="1042" d="M49 522q0 66 6 115h627q-6 139 -53 199.5t-137 60.5q-68 0 -126.5 -19.5t-123.5 -66.5l-127 172q162 139 389 139q241 0 360 -151.5t119 -425.5q0 -266 -123 -423t-350 -157q-215 0 -338 142.5t-123 414.5zM127 1475q0 66 46 111.5t112 45.5q67 0 112 -45t45 -112 q0 -68 -45 -114t-112 -46q-66 0 -112 46t-46 114zM342 430q2 -242 170 -242q82 0 123 56.5t49 201.5h-342v-16zM561 1475q0 66 46 111.5t112 45.5q67 0 113.5 -45t46.5 -112q0 -68 -45.5 -114t-114.5 -46q-66 0 -112 46t-46 114z" />
<glyph unicode="&#x4dc;" horiz-adv-x="1685" d="M-14 0l338 774l-306 645h316l258 -563h102v563h299v-563h101l262 563h313l-307 -645l340 -774h-348l-254 623h-107v-623h-299v623h-110l-258 -623h-340zM471 1733q0 66 46 111.5t112 45.5q67 0 112 -45t45 -112q0 -68 -45 -114t-112 -46q-66 0 -112 46t-46 114zM905 1733 q0 66 46 111.5t112 45.5q67 0 113.5 -45t46.5 -112q0 -68 -45.5 -114t-114.5 -46q-66 0 -112 46t-46 114z" />
<glyph unicode="&#x4dd;" horiz-adv-x="1396" d="M-4 0l242 582l-222 505h285l176 -428h84v428h275v-428h84l178 428h282l-219 -505l240 -582h-307l-179 467h-79v-467h-275v467h-80l-178 -467h-307zM322 1475q0 66 46 111.5t112 45.5q67 0 112 -45t45 -112q0 -68 -45 -114t-112 -46q-66 0 -112 46t-46 114zM756 1475 q0 66 46 111.5t112 45.5q67 0 113.5 -45t46.5 -112q0 -68 -45.5 -114t-114.5 -46q-66 0 -112 46t-46 114z" />
<glyph unicode="&#x4de;" horiz-adv-x="1005" d="M-8 164l170 168q63 -63 123.5 -93t132.5 -30q94 0 148.5 54t54.5 157q0 100 -54.5 155.5t-163.5 55.5h-137l37 235h107q88 0 134 47.5t46 133.5q0 76 -38 123t-120 47q-121 0 -252 -113l-149 164q182 186 444 186q137 0 238.5 -48t157 -133t55.5 -192q0 -125 -74 -210 t-221 -117q160 -20 247 -108.5t87 -242.5q0 -131 -65.5 -230t-184.5 -153.5t-271 -54.5q-149 0 -259.5 50.5t-192.5 148.5zM102 1733q0 66 46 111.5t112 45.5q67 0 112 -45t45 -112q0 -68 -45 -114t-112 -46q-66 0 -112 46t-46 114zM536 1733q0 66 46 111.5t112 45.5 q67 0 113.5 -45t46.5 -112q0 -68 -45.5 -114t-114.5 -46q-66 0 -112 46t-46 114z" />
<glyph unicode="&#x4df;" horiz-adv-x="925" d="M2 98l145 170q66 -43 119 -60.5t119 -17.5q156 0 156 140q0 68 -42 98.5t-126 30.5h-140l17 203h100q150 0 150 129q0 57 -34 84.5t-91 27.5q-55 0 -102.5 -17.5t-98.5 -51.5l-143 161q164 127 399 127q168 0 278.5 -82t110.5 -219q0 -92 -56 -151.5t-173 -89.5 q139 -20 207.5 -84t68.5 -183q0 -170 -125 -259t-335 -89q-242 0 -404 133zM57 1475q0 66 46 111.5t112 45.5q67 0 112 -45t45 -112q0 -68 -45 -114t-112 -46q-66 0 -112 46t-46 114zM491 1475q0 66 46 111.5t112 45.5q67 0 113.5 -45t46.5 -112q0 -68 -45.5 -114 t-114.5 -46q-66 0 -112 46t-46 114z" />
<glyph unicode="&#x4e0;" horiz-adv-x="1013" d="M4 174l170 156q63 -63 122.5 -92t137.5 -29q96 0 149.5 58.5t53.5 164.5t-56.5 153.5t-168.5 47.5h-179v184l330 365h-483v237h827v-231l-336 -365q197 -8 300.5 -112.5t103.5 -290.5q0 -131 -61.5 -233.5t-178.5 -162t-278 -59.5q-154 0 -263.5 53.5t-189.5 155.5z" />
<glyph unicode="&#x4e1;" horiz-adv-x="948" d="M-29 -246l166 158q68 -68 126.5 -96.5t131.5 -28.5q96 0 148.5 61.5t52.5 184.5q0 115 -55.5 165t-171.5 50h-168v184l315 420h-469v235h811v-217l-340 -438q402 -29 402 -414q0 -135 -60.5 -242.5t-174.5 -168t-269 -60.5q-287 0 -445 207z" />
<glyph unicode="&#x4e2;" horiz-adv-x="1226" d="M113 0v1419h311v-549q0 -166 -10.5 -288.5t-28.5 -257.5l344 1095h385v-1419h-313v541q0 276 41 555l-340 -1096h-389zM328 1604v215h574v-215h-574z" />
<glyph unicode="&#x4e3;" horiz-adv-x="1095" d="M106 0v1087h293v-393q0 -215 -43 -391l316 784h317v-1087h-291v389q0 225 45 393l-321 -782h-316zM262 1346v215h574v-215h-574z" />
<glyph unicode="&#x4e4;" horiz-adv-x="1226" d="M113 0v1419h311v-549q0 -166 -10.5 -288.5t-28.5 -257.5l344 1095h385v-1419h-313v541q0 276 41 555l-340 -1096h-389zM242 1733q0 66 46 111.5t112 45.5q67 0 112 -45t45 -112q0 -68 -45 -114t-112 -46q-66 0 -112 46t-46 114zM676 1733q0 66 46 111.5t112 45.5 q67 0 113.5 -45t46.5 -112q0 -68 -45.5 -114t-114.5 -46q-66 0 -112 46t-46 114z" />
<glyph unicode="&#x4e5;" horiz-adv-x="1095" d="M106 0v1087h293v-393q0 -215 -43 -391l316 784h317v-1087h-291v389q0 225 45 393l-321 -782h-316zM172 1475q0 66 46 111.5t112 45.5q67 0 112 -45t45 -112q0 -68 -45 -114t-112 -46q-66 0 -112 46t-46 114zM606 1475q0 66 46 111.5t112 45.5q67 0 113.5 -45t46.5 -112 q0 -68 -45.5 -114t-114.5 -46q-66 0 -112 46t-46 114z" />
<glyph unicode="&#x4e6;" horiz-adv-x="1290" d="M61 711q0 358 153 550.5t431 192.5q281 0 432.5 -189.5t151.5 -553.5q0 -360 -152.5 -553t-431.5 -193t-431.5 190.5t-152.5 555.5zM272 1733q0 66 46 111.5t112 45.5q67 0 112 -45t45 -112q0 -68 -45 -114t-112 -46q-66 0 -112 46t-46 114zM403 711q0 -274 59.5 -390 t182.5 -116q125 0 183.5 115.5t58.5 390.5q0 270 -58.5 386.5t-183.5 116.5t-183.5 -116.5t-58.5 -386.5zM706 1733q0 66 46 111.5t112 45.5q67 0 113.5 -45t46.5 -112q0 -68 -45.5 -114t-114.5 -46q-66 0 -112 46t-46 114z" />
<glyph unicode="&#x4e7;" horiz-adv-x="1093" d="M59 545q0 272 130 424.5t358 152.5q229 0 359 -148.5t130 -430.5q0 -270 -131 -424t-358 -154q-229 0 -358.5 149.5t-129.5 430.5zM170 1475q0 66 46 111.5t112 45.5q67 0 112 -45t45 -112q0 -68 -45 -114t-112 -46q-66 0 -112 46t-46 114zM385 545q0 -188 39 -268 t123 -80t124 80.5t40 265.5q0 188 -39 267t-125 79q-84 0 -123 -80t-39 -264zM604 1475q0 66 46 111.5t112 45.5q67 0 113.5 -45t46.5 -112q0 -68 -45.5 -114t-114.5 -46q-66 0 -112 46t-46 114z" />
<glyph unicode="&#x4e8;" horiz-adv-x="1290" d="M61 711q0 358 153 550.5t431 192.5q281 0 432.5 -189.5t151.5 -553.5q0 -360 -152.5 -553t-431.5 -193t-431.5 190.5t-152.5 555.5zM393 625q8 -225 70.5 -322.5t181.5 -97.5q121 0 182.5 97t69.5 323h-504zM393 813h504q-12 213 -73.5 307t-178.5 94q-115 0 -177 -94 t-75 -307z" />
<glyph unicode="&#x4e9;" horiz-adv-x="1093" d="M59 545q0 272 130 424.5t358 152.5q229 0 359 -148.5t130 -430.5q0 -270 -131 -424t-358 -154q-229 0 -358.5 149.5t-129.5 430.5zM373 463q8 -145 51 -207.5t123 -62.5t123 63t51 207h-348zM375 641h344q-8 137 -50 195.5t-122 58.5q-78 0 -121 -60.5t-51 -193.5z" />
<glyph unicode="&#x4ea;" horiz-adv-x="1290" d="M61 711q0 358 153 550.5t431 192.5q281 0 432.5 -189.5t151.5 -553.5q0 -360 -152.5 -553t-431.5 -193t-431.5 190.5t-152.5 555.5zM272 1733q0 66 46 111.5t112 45.5q67 0 112 -45t45 -112q0 -68 -45 -114t-112 -46q-66 0 -112 46t-46 114zM393 625q8 -225 70.5 -322.5 t181.5 -97.5q121 0 182.5 97t69.5 323h-504zM393 813h504q-12 213 -73.5 307t-178.5 94q-115 0 -177 -94t-75 -307zM706 1733q0 66 46 111.5t112 45.5q67 0 113.5 -45t46.5 -112q0 -68 -45.5 -114t-114.5 -46q-66 0 -112 46t-46 114z" />
<glyph unicode="&#x4eb;" horiz-adv-x="1093" d="M59 545q0 272 130 424.5t358 152.5q229 0 359 -148.5t130 -430.5q0 -270 -131 -424t-358 -154q-229 0 -358.5 149.5t-129.5 430.5zM170 1475q0 66 46 111.5t112 45.5q67 0 112 -45t45 -112q0 -68 -45 -114t-112 -46q-66 0 -112 46t-46 114zM373 463q8 -145 51 -207.5 t123 -62.5t123 63t51 207h-348zM375 641h344q-8 137 -50 195.5t-122 58.5q-78 0 -121 -60.5t-51 -193.5zM604 1475q0 66 46 111.5t112 45.5q67 0 113.5 -45t46.5 -112q0 -68 -45.5 -114t-114.5 -46q-66 0 -112 46t-46 114z" />
<glyph unicode="&#x4ec;" horiz-adv-x="1007" d="M10 129l146 176q57 -47 107 -69.5t116 -22.5q113 0 171 95t64 304h-419v230h419q-8 201 -61 286.5t-154 85.5q-66 0 -117 -22.5t-112 -73.5l-150 176q86 82 180.5 121t223.5 39q252 0 387 -181t135 -554t-144.5 -563.5t-406.5 -190.5q-225 0 -385 164zM70 1733 q0 66 46 111.5t112 45.5q67 0 112 -45t45 -112q0 -68 -45 -114t-112 -46q-66 0 -112 46t-46 114zM504 1733q0 66 46 111.5t112 45.5q67 0 113.5 -45t46.5 -112q0 -68 -45.5 -114t-114.5 -46q-66 0 -112 46t-46 114z" />
<glyph unicode="&#x4ed;" horiz-adv-x="905" d="M14 88l138 178q53 -37 95 -53t93 -16q82 0 133 60t59 206h-344v184h342q-8 135 -49 190.5t-114 55.5q-100 0 -195 -72l-133 174q145 127 352 127q213 0 334 -143t121 -424t-128 -435.5t-362 -154.5q-102 0 -185 31t-157 92zM39 1475q0 66 46 111.5t112 45.5q67 0 112 -45 t45 -112q0 -68 -45 -114t-112 -46q-66 0 -112 46t-46 114zM473 1475q0 66 46 111.5t112 45.5q67 0 113.5 -45t46.5 -112q0 -68 -45.5 -114t-114.5 -46q-66 0 -112 46t-46 114z" />
<glyph unicode="&#x4ee;" d="M-29 1419h330l258 -858l225 858h328l-338 -997q-55 -164 -129 -258t-176 -138t-260 -61l-41 221q125 16 190.5 57.5t108.5 133.5h-107zM252 1604v215h574v-215h-574z" />
<glyph unicode="&#x4ef;" horiz-adv-x="974" d="M-10 1087h323l168 -886l187 886h317l-309 -1089q-117 -424 -570 -453l-34 219q141 20 210.5 72.5t110.5 163.5h-112zM194 1346v215h574v-215h-574z" />
<glyph unicode="&#x4f0;" d="M-29 1419h330l258 -858l225 858h328l-338 -997q-55 -164 -129 -258t-176 -138t-260 -61l-41 221q125 16 190.5 57.5t108.5 133.5h-107zM166 1733q0 66 46 111.5t112 45.5q67 0 112 -45t45 -112q0 -68 -45 -114t-112 -46q-66 0 -112 46t-46 114zM600 1733q0 66 46 111.5 t112 45.5q67 0 113.5 -45t46.5 -112q0 -68 -45.5 -114t-114.5 -46q-66 0 -112 46t-46 114z" />
<glyph unicode="&#x4f1;" horiz-adv-x="974" d="M-10 1087h323l168 -886l187 886h317l-309 -1089q-117 -424 -570 -453l-34 219q141 20 210.5 72.5t110.5 163.5h-112zM105 1475q0 66 46 111.5t112 45.5q67 0 112 -45t45 -112q0 -68 -45 -114t-112 -46q-66 0 -112 46t-46 114zM539 1475q0 66 46 111.5t112 45.5 q67 0 113.5 -45t46.5 -112q0 -68 -45.5 -114t-114.5 -46q-66 0 -112 46t-46 114z" />
<glyph unicode="&#x4f2;" d="M-29 1419h330l258 -858l225 858h328l-338 -997q-55 -164 -129 -258t-176 -138t-260 -61l-41 221q125 16 190.5 57.5t108.5 133.5h-107zM291 1614l166 399l207 -98l-215 -367zM609 1614l180 399l203 -104l-230 -369z" />
<glyph unicode="&#x4f3;" horiz-adv-x="974" d="M-10 1087h323l168 -886l187 886h317l-309 -1089q-117 -424 -570 -453l-34 219q141 20 210.5 72.5t110.5 163.5h-112zM221 1356l166 399l207 -98l-215 -367zM539 1356l180 399l203 -104l-230 -369z" />
<glyph unicode="&#x4f4;" horiz-adv-x="1153" d="M37 862v557h321v-538q0 -119 41 -169t127 -50q113 0 187 77v680h327v-1419h-327v526q-63 -55 -130 -81.5t-153 -26.5q-180 0 -286.5 117.5t-106.5 326.5zM164 1733q0 66 46 111.5t112 45.5q67 0 112 -45t45 -112q0 -68 -45 -114t-112 -46q-66 0 -112 46t-46 114z M598 1733q0 66 46 111.5t112 45.5q67 0 113.5 -45t46.5 -112q0 -68 -45.5 -114t-114.5 -46q-66 0 -112 46t-46 114z" />
<glyph unicode="&#x4f5;" horiz-adv-x="1024" d="M51 621v466h316v-432q0 -61 22.5 -88.5t67.5 -27.5q39 0 77.5 19.5t67.5 49.5v479h316v-1087h-316v410q-115 -104 -266 -105q-139 0 -212 83t-73 233zM109 1475q0 66 46 111.5t112 45.5q67 0 112 -45t45 -112q0 -68 -45 -114t-112 -46q-66 0 -112 46t-46 114zM543 1475 q0 66 46 111.5t112 45.5q67 0 113.5 -45t46.5 -112q0 -68 -45.5 -114t-114.5 -46q-66 0 -112 46t-46 114z" />
<glyph unicode="&#x4f6;" horiz-adv-x="946" d="M113 0v1419h835l-33 -258h-475v-911h148v-588h-223l-35 338h-217z" />
<glyph unicode="&#x4f7;" horiz-adv-x="804" d="M106 0v1087h711l-37 -239h-358v-615h147v-571h-213l-34 338h-216z" />
<glyph unicode="&#x4f8;" horiz-adv-x="1591" d="M113 0v1419h327v-487h101q254 0 388 -112.5t134 -340.5q0 -240 -138.5 -359.5t-375.5 -119.5h-436zM424 1733q0 66 46 111.5t112 45.5q67 0 112 -45t45 -112q0 -68 -45 -114t-112 -46q-66 0 -112 46t-46 114zM440 238h80q103 0 153 56t50 181q0 119 -49 174.5t-158 55.5 h-76v-467zM858 1733q0 66 46 111.5t112 45.5q67 0 113.5 -45t46.5 -112q0 -68 -45.5 -114t-114.5 -46q-66 0 -112 46t-46 114zM1151 0v1419h328v-1419h-328z" />
<glyph unicode="&#x4f9;" horiz-adv-x="1427" d="M106 0v1087h316v-339h45q238 0 350.5 -94.5t112.5 -280.5q0 -188 -117 -280.5t-324 -92.5h-383zM336 1475q0 66 46 111.5t112 45.5q67 0 112 -45t45 -112q0 -68 -45 -114t-112 -46q-66 0 -112 46t-46 114zM422 209h55q72 0 105.5 39t33.5 131t-32.5 131t-116.5 39h-45 v-340zM770 1475q0 66 46 111.5t112 45.5q67 0 113.5 -45t46.5 -112q0 -68 -45.5 -114t-114.5 -46q-66 0 -112 46t-46 114zM1006 0v1087h315v-1087h-315z" />
<glyph unicode="&#x4fa;" horiz-adv-x="964" d="M-39 -367l109 189q37 -20 63.5 -28.5t61.5 -8.5q96 0 96 113v102h-162v672h-137v196h137v551h836l-33 -258h-475v-293h256v-196h-256v-422h161v-334q0 -182 -104 -275.5t-281 -93.5q-160 0 -272 86z" />
<glyph unicode="&#x4fb;" horiz-adv-x="825" d="M-47 -367l108 181q37 -20 64 -28.5t63 -8.5q47 0 74 27.5t27 84.5v111h-164v449h-107v180h107v458h711l-37 -239h-359v-219h201v-180h-201v-216h162v-231h2v-92q0 -176 -102.5 -269.5t-272.5 -93.5q-166 0 -276 86z" />
<glyph unicode="&#x4fc;" horiz-adv-x="1130" d="M-12 0l354 754l-328 665h348l177 -461l188 461h340l-336 -653l248 -516h156v-250h-2v-84q0 -182 -104.5 -275.5t-280.5 -93.5q-160 0 -273 86l109 189q37 -20 63.5 -28.5t61.5 -8.5q96 0 96 113v102h-57l-213 547l-205 -547h-342z" />
<glyph unicode="&#x4fd;" horiz-adv-x="999" d="M-20 0l311 571l-283 516h338l133 -352l127 352h326l-264 -505l188 -349h158v-231h2v-92q0 -176 -102.5 -269.5t-272.5 -93.5q-166 0 -276 86l108 181q37 -20 63.5 -28.5t63.5 -8.5q47 0 73.5 27.5t26.5 84.5v111h-61l-168 412l-160 -412h-331z" />
<glyph unicode="&#x4fe;" horiz-adv-x="1085" d="M-12 0l303 645h-201v207h203l-279 567h348l177 -501l188 501h340l-291 -567h213v-207h-201l310 -645h-350l-213 563l-205 -563h-342z" />
<glyph unicode="&#x4ff;" horiz-adv-x="960" d="M-20 0l260 477h-152v195h148l-228 415h332l141 -374l133 374h318l-217 -415h153v-195h-145l258 -477h-342l-168 430l-160 -430h-331z" />
<glyph unicode="&#x2000;" horiz-adv-x="1006" />
<glyph unicode="&#x2001;" horiz-adv-x="2013" />
<glyph unicode="&#x2002;" horiz-adv-x="1006" />
<glyph unicode="&#x2003;" horiz-adv-x="2013" />
<glyph unicode="&#x2004;" horiz-adv-x="671" />
<glyph unicode="&#x2005;" horiz-adv-x="503" />
<glyph unicode="&#x2006;" horiz-adv-x="335" />
<glyph unicode="&#x2007;" horiz-adv-x="335" />
<glyph unicode="&#x2008;" horiz-adv-x="251" />
<glyph unicode="&#x2009;" horiz-adv-x="402" />
<glyph unicode="&#x200a;" horiz-adv-x="111" />
<glyph unicode="&#x2010;" horiz-adv-x="768" d="M84 518v246h600v-246h-600z" />
<glyph unicode="&#x2011;" horiz-adv-x="768" d="M84 518v246h600v-246h-600z" />
<glyph unicode="&#x2012;" horiz-adv-x="768" d="M84 518v246h600v-246h-600z" />
<glyph unicode="&#x2013;" horiz-adv-x="972" d="M43 518v246h887v-246h-887z" />
<glyph unicode="&#x2014;" horiz-adv-x="1484" d="M43 518v246h1399v-246h-1399z" />
<glyph unicode="&#x2018;" horiz-adv-x="468" d="M74 1110q0 37 13 78t44 112l117 269h155l-77 -320q74 -53 73 -139q0 -70 -47 -116t-119 -46q-71 0 -115 46t-44 116z" />
<glyph unicode="&#x2019;" horiz-adv-x="468" d="M66 946l77 320q-74 53 -73 139q0 70 47 116t119 46q71 0 115 -46t44 -116q0 -37 -13 -78t-44 -113l-117 -268h-155z" />
<glyph unicode="&#x201a;" horiz-adv-x="468" d="M66 -334l77 320q-74 53 -73 139q0 70 47 116t119 46q71 0 115 -46t44 -116q0 -37 -13 -78t-44 -113l-117 -268h-155z" />
<glyph unicode="&#x201c;" horiz-adv-x="890" d="M76 1110q0 37 13 78t44 112l117 269h156l-78 -320q74 -53 73 -139q0 -70 -47 -116t-118 -46q-72 0 -116 46t-44 116zM496 1110q0 37 13 78t44 112l117 269h155l-77 -320q74 -53 73 -139q0 -70 -47 -116t-119 -46q-71 0 -115 46t-44 116z" />
<glyph unicode="&#x201d;" horiz-adv-x="890" d="M66 946l77 320q-74 53 -73 139q0 70 47 116t119 46q71 0 115 -46t44 -116q0 -37 -13 -78t-44 -113l-117 -268h-155zM486 946l77 320q-74 53 -73 139q0 70 47 116t119 46q71 0 115 -46t44 -116q0 -37 -13 -78t-44 -113l-117 -268h-155z" />
<glyph unicode="&#x201e;" horiz-adv-x="890" d="M66 -334l77 320q-74 53 -73 139q0 70 47 116t119 46q71 0 115 -46t44 -116q0 -37 -13 -78t-44 -113l-117 -268h-155zM486 -334l77 320q-74 53 -73 139q0 70 47 116t119 46q71 0 115 -46t44 -116q0 -37 -13 -78t-44 -113l-117 -268h-155z" />
<glyph unicode="&#x2022;" horiz-adv-x="681" d="M66 700q0 121 77.5 200t196.5 79q121 0 198.5 -80t77.5 -201t-77.5 -198.5t-198.5 -77.5q-119 0 -196.5 80t-77.5 198z" />
<glyph unicode="&#x2026;" horiz-adv-x="1413" d="M55 147q0 74 51.5 127.5t126.5 53.5q78 0 129.5 -53.5t51.5 -127.5q0 -76 -51.5 -129t-129.5 -53t-128 53.5t-50 128.5zM528 147q0 74 51.5 127.5t126.5 53.5q78 0 129.5 -53.5t51.5 -127.5q0 -76 -51.5 -129t-129.5 -53t-128 53.5t-50 128.5zM999 147q0 74 51.5 127.5 t126.5 53.5q78 0 129.5 -53.5t51.5 -127.5q0 -76 -51.5 -129t-129.5 -53t-128 53.5t-50 128.5z" />
<glyph unicode="&#x202f;" horiz-adv-x="402" />
<glyph unicode="&#x2039;" horiz-adv-x="686" d="M70 481v201l352 455l196 -129l-241 -424l241 -426l-196 -129z" />
<glyph unicode="&#x203a;" horiz-adv-x="686" d="M70 158l241 426l-241 424l194 129l354 -455v-201l-354 -452z" />
<glyph unicode="&#x205f;" horiz-adv-x="503" />
<glyph unicode="&#x20ac;" horiz-adv-x="1097" d="M12 451l41 165h109v150h-150l41 166h119q55 229 204.5 355t352.5 126q109 0 194 -31.5t160 -87.5l-108 -188q-57 39 -111.5 58.5t-120.5 19.5q-197 0 -254 -252h445l-43 -166h-414v-150h387l-41 -165h-338q25 -136 91.5 -196t175.5 -60q125 0 268 84v-238 q-147 -76 -303 -76q-217 0 -359.5 124t-187.5 362h-158z" />
<glyph unicode="&#x2122;" horiz-adv-x="1677" d="M51 1237v182h662l-31 -182h-197v-631h-227v631h-207zM735 606l27 813h291l110 -516l99 516h301l26 -813h-217l-6 336q-2 90 1 150.5t13 144.5h-4l-125 -547h-174l-135 545h-4q14 -150 12 -293l-6 -336h-209z" />
<glyph unicode="&#x25fc;" horiz-adv-x="1085" d="M0 0v1085h1085v-1085h-1085z" />
</font>
</defs>
</svg>
