<svg xmlns="http://www.w3.org/2000/svg" viewBox="0 0 512.002 512.002" width="40" height="50" fill="#e29e21">
  <path d="M400.291 24.048h-136.79V7.5a7.5 7.5 0 0 0-15 0v16.548H111.71c-8.556 0-15.516 6.96-15.516 15.516v16.032c0 8.556 6.96 15.516 15.516 15.516h.516V336.16c0 8.556 6.96 15.516 15.516 15.516h30.932l-30.27 151.352a7.5 7.5 0 0 0 7.363 8.972 7.503 7.503 0 0 0 7.347-6.031l5.207-26.035h100.18V504.5a7.5 7.5 0 0 0 15 0v-24.564h100.18l5.207 26.035a7.504 7.504 0 0 0 8.826 5.884 7.5 7.5 0 0 0 5.884-8.825l-30.27-151.352h30.932c8.556 0 15.516-6.96 15.516-15.516V71.113h.516c8.556 0 15.516-6.96 15.516-15.516V39.564c-.001-8.555-6.961-15.516-15.517-15.516zm-39.61 440.888h-97.18v-88.694a7.5 7.5 0 0 0-15 0v88.694h-97.18l22.652-113.258H338.03l22.651 113.258zm40.126-409.339a.516.516 0 0 1-.516.516h-24.046a7.5 7.5 0 0 0 0 15h8.53v265.048a.516.516 0 0 1-.516.516H127.742a.516.516 0 0 1-.516-.516V71.113h216.953a7.5 7.5 0 0 0 0-15H111.71a.516.516 0 0 1-.516-.516V39.564c0-.285.231-.516.516-.516h288.581c.285 0 .516.231.516.516v16.033z"/>
  <path d="M352.194 128.258h-40.081a7.5 7.5 0 0 0 0 15h21.974l-73.714 73.714a.518.518 0 0 1-.73 0l-16.72-16.72c-6.048-6.048-15.892-6.049-21.943 0l-66.477 66.477a7.5 7.5 0 0 0 5.303 12.803 7.474 7.474 0 0 0 5.303-2.197l66.476-66.477a.516.516 0 0 1 .73 0l16.72 16.72a15.413 15.413 0 0 0 10.971 4.544 15.42 15.42 0 0 0 10.972-4.544l73.714-73.714v21.974a7.5 7.5 0 0 0 15 0v-40.081a7.497 7.497 0 0 0-7.498-7.499z"/>
</svg>