<svg xmlns="http://www.w3.org/2000/svg" viewBox="0 -55 512 512" width="45" height="40" fill="#e29e21">
  <path d="M286.703 195.55h-61.406c-10.7 0-19.402 8.704-19.402 19.4v31.363c0 10.699 8.703 19.402 19.402 19.402h61.406c10.7 0 19.402-8.703 19.402-19.402v-31.364c0-10.695-8.703-19.398-19.402-19.398zm4.402 50.766a4.407 4.407 0 0 1-4.402 4.403h-61.406a4.407 4.407 0 0 1-4.402-4.403v-31.363a4.404 4.404 0 0 1 4.402-4.402h61.406a4.404 4.404 0 0 1 4.402 4.402zm0 0"/>
  <path d="M511.895 83.922c-1.067-10.457-9.922-18.64-20.653-18.64H344.773V30.16c0-16.629-13.53-30.16-30.16-30.16H197.387c-16.63 0-30.16 13.531-30.16 30.16v35.121H20.757c-10.73 0-19.585 8.184-20.648 18.64C.035 84.618 0 85.325 0 86.04v296.082c0 11.445 9.313 20.758 20.758 20.758h470.484c11.445 0 20.758-9.313 20.758-20.758V86.04c0-.715-.035-1.422-.105-2.117zM182.227 30.16c0-8.36 6.8-15.16 15.16-15.16h117.226c8.36 0 15.16 6.8 15.16 15.16v35.121h-9.628V35.992c0-6.265-5.098-11.363-11.364-11.363H203.22c-6.266 0-11.364 5.098-11.364 11.363v29.29h-9.628zm122.918 9.469V65.28h-98.29V39.63zM497 96.25c0 18.629-10.879 35.816-27.715 43.79l-139.539 66.085a7.5 7.5 0 0 0-3.566 9.988c1.77 3.746 6.246 5.34 9.984 3.57l139.54-66.085A63.233 63.233 0 0 0 497 137.148v244.973a5.763 5.763 0 0 1-5.758 5.758H20.758A5.763 5.763 0 0 1 15 382.12V137.148a63.233 63.233 0 0 0 21.297 16.45L176.082 219.8a7.5 7.5 0 0 0 9.988-3.57 7.5 7.5 0 0 0-3.566-9.989L42.714 140.04C25.88 132.066 15 114.88 15 96.25V86.04a5.762 5.762 0 0 1 5.758-5.758h470.484A5.762 5.762 0 0 1 497 86.038zm0 0"/>
</svg>