<svg xmlns="http://www.w3.org/2000/svg" viewBox="0 0 511.949 511.949" width="45" height="45" fill="#e29e21">
  <path d="M339.533 41.534V7.5a7.5 7.5 0 0 0-7.5-7.5H279.94a7.5 7.5 0 0 0-7.5 7.5v15.766a195.848 195.848 0 0 0-16.465-.713c-109.105 0-197.869 91.247-197.869 203.404 0 30.438 6.384 59.718 18.976 87.028 30.824 66.848 168.028 191.783 173.854 197.069 4.039 3.665 8.439 1.406 11.982-1.664 4.255-3.687 75.742-72.56 93.132-90.499 3.695-3.812 9.047-8.682 4.835-14.172-2.744-3.576-8.189-4.238-11.37-.861-36.179 38.427-79.051 78.21-93.518 91.472-25.354-23.472-138.952-130.5-165.292-187.626-11.677-25.326-17.598-52.494-17.598-80.747 0-103.887 82.035-188.404 182.869-188.404 5.489 0 11.006.255 16.465.756v16.954h-17.038a7.5 7.5 0 0 0-7.5 7.5V81.14c-19.376 1.103-37.979 6.124-55.331 14.958-8.618 4.386-1.855 17.775 6.806 13.367 15.231-7.755 31.541-12.225 48.525-13.308v107.8h-20.286v-64.28c0-9.673-15-9.673-15 0v64.28h-15.742v-32.235c0-9.673-15-9.673-15 0v32.235H155.38a7.5 7.5 0 0 0-7.5 7.5v86.174c-12.492-20.32-19.735-44.383-19.735-70.157 0-38.021 15.979-74.175 43.842-99.189 7.197-6.463-2.823-17.623-10.021-11.162-31.026 27.856-48.82 68.078-48.82 110.352 0 80.417 63.435 145.907 141.649 146.563.102.004.202.015.305.015.051 0 .101-.007.152-.008.051.001.101.008.152.008.04 0 .078-.005.118-.006.152 0 .303.006.455.006 78.757 0 142.831-65.755 142.831-146.578 0-34.887-12.143-68.682-34.191-95.159a7.601 7.601 0 0 0-.544-.586V73.943c46.374 35.018 74.773 91.149 74.773 152.014 0 28.255-5.921 55.423-17.598 80.747-9.318 20.21-27.518 46.59-49.932 72.376-6.321 7.271 4.952 17.167 11.321 9.84 23.648-27.206 42.198-54.174 52.232-75.935 12.592-27.309 18.976-56.589 18.976-87.028-.001-79.238-44.708-151.069-114.312-184.423zM287.439 15h37.093v30.353a7.482 7.482 0 0 0 0 1.807v8.104h-37.093V15zM162.611 317.247a7.47 7.47 0 0 0 .268-1.962v-96.327h84.719v139.805c-33.449-2.239-63.427-17.775-84.987-41.516zm100.291 41.611V70.263h86.169v246.301c0 .31.024.613.061.913-21.858 23.954-52.306 39.507-86.23 41.381zm120.904-131.383c0 25.774-7.243 49.837-19.735 70.157V157.243c12.814 20.895 19.735 45.244 19.735 70.232z"/>
  <path d="M320.718 110.5H291.26c-9.673 0-9.673 15 0 15h29.458c9.672 0 9.672-15 0-15z"/>
  <path d="M320.718 168.833H291.26c-9.673 0-9.673 15 0 15h29.458c9.672 0 9.672-15 0-15z"/>
  <path d="M320.718 227.167H291.26c-9.673 0-9.673 15 0 15h29.458c9.672 0 9.672-15 0-15z"/>
  <path d="M320.718 285.5H291.26c-9.673 0-9.673 15 0 15h29.458c9.672 0 9.672-15 0-15z"/>
  <path d="M188.245 242.121a7.5 7.5 0 0 0-7.5 7.5V265c0 4.143 3.358 7.5 7.5 7.5s7.5-3.357 7.5-7.5v-15.379a7.5 7.5 0 0 0-7.5-7.5z"/>
  <path d="M188.245 296.252a7.5 7.5 0 0 0-7.5 7.5v15.38c0 4.143 3.358 7.5 7.5 7.5s7.5-3.357 7.5-7.5v-15.38a7.5 7.5 0 0 0-7.5-7.5z"/>
  <path d="M221.245 242.121a7.5 7.5 0 0 0-7.5 7.5V265c0 4.143 3.358 7.5 7.5 7.5s7.5-3.357 7.5-7.5v-15.379a7.5 7.5 0 0 0-7.5-7.5z"/>
  <path d="M221.245 296.252a7.5 7.5 0 0 0-7.5 7.5v15.38c0 4.143 3.358 7.5 7.5 7.5s7.5-3.357 7.5-7.5v-15.38a7.5 7.5 0 0 0-7.5-7.5z"/>
</svg>